<svg width="214" height="214" viewBox="0 0 214 214" fill="none" xmlns="http://www.w3.org/2000/svg">
<circle cx="107" cy="107" r="107" fill="#040303"/>
<path fill-rule="evenodd" clip-rule="evenodd" d="M154.519 58H165.275L153.686 67.1292H145.876L154.519 58ZM79.3299 76.32V106.221H56.2782V76.32H24.7994C29.9687 81.2648 33.118 87.6721 33.118 94.644V155.017H56.2782V121.735H79.3299V155.017H102.599V76.32H79.3299ZM164.999 139.618H143.417V123.314H162.639L163.28 121.635C165.223 116.546 166.341 113.619 168.373 108.023H143.417V91.7191H164.999C172.644 91.7191 177.256 93.9707 181.187 99.5888C182.582 95.7491 184.001 91.9359 185.421 88.1221L185.421 88.1208C186.869 84.2337 188.316 80.3459 189.737 76.4286L111.822 76.32C116.991 81.2648 120.141 87.6721 120.141 94.644V155.017L189.737 154.908C189.737 154.908 184.003 139.502 181.187 131.748C177.256 137.366 172.644 139.618 164.999 139.618Z" fill="white"/>
</svg>
