<svg width="48" height="69" viewBox="0 0 48 69" fill="none" xmlns="http://www.w3.org/2000/svg">
<path d="M0.72926 57.5994C0.827107 54.9901 2.75146 52.12 6.30656 50.3587C7.31764 49.8695 7.61118 49.2824 7.61118 48.2387C7.57856 39.3347 7.57856 30.4306 7.61118 21.4939C7.61118 20.2872 7.18715 19.7001 6.11083 19.1782C1.60988 16.9278 -0.412278 11.905 1.18589 7.33878C2.81666 2.70737 7.5133 -0.0323443 12.3078 0.880892C16.874 1.7289 20.3638 6.03415 20.1355 10.7634C19.9725 14.5142 18.1786 17.417 14.7866 19.113C13.6451 19.7001 13.221 20.385 13.2537 21.6244C13.3189 26.7777 13.3189 31.9635 13.2537 37.1168C13.221 38.6824 13.6451 38.7802 15.1128 38.5193C19.5485 37.7691 24.0168 37.2799 28.4852 36.6928C29.3984 36.5623 30.3116 36.4645 31.2248 36.3666C34.1276 36.0405 35.6606 34.0836 35.367 31.2134C35.2692 30.1697 34.4864 29.9414 33.8015 29.5826C30.2464 27.7235 28.159 23.9727 28.5178 20.0589C28.8439 16.2428 31.6815 12.753 35.4322 11.6114C40.2267 10.1437 45.38 12.6551 47.3043 17.417C49.196 22.081 47.1086 27.4626 42.5099 29.7131C41.6945 30.1045 41.0747 30.4306 41.0095 31.5395C40.716 37.9974 37.3566 41.4221 30.9639 42.107C26.3325 42.5962 21.7011 43.2159 17.0697 43.803C14.3952 44.1292 12.8296 46.3796 13.2863 49.0867C13.4493 50.0652 14.1995 50.1957 14.8518 50.5544C18.3743 52.4135 20.5269 56.2948 20.1355 60.1108C19.7115 64.2204 16.8414 67.5798 12.8949 68.6235C6.69793 70.2542 0.664029 65.525 0.72926 57.5994ZM10.3509 14.5142C12.7318 14.5468 14.4605 12.8182 14.4605 10.4699C14.4605 8.12155 12.6666 6.26246 10.4161 6.26246C8.23087 6.26246 6.24131 8.2194 6.20869 10.4046C6.17608 12.6551 8.03515 14.5142 10.3509 14.5142ZM38.2698 24.9512C40.5855 24.9186 42.4446 23.0921 42.412 20.8416C42.3794 18.6238 40.3898 16.6994 38.2046 16.6994C35.9541 16.6994 34.1602 18.5585 34.1602 20.9069C34.1602 23.2878 35.8889 24.9838 38.2698 24.9512ZM10.4813 55.088C8.13301 55.0554 6.27392 56.784 6.20869 59.0671C6.14346 61.2849 8.19824 63.3723 10.4487 63.3397C12.6666 63.3071 14.4278 61.5133 14.4605 59.2628C14.5257 56.8818 12.8296 55.1206 10.4813 55.088Z" fill="white"/>
</svg>
