<svg width="67" height="67" viewBox="0 0 67 67" fill="none" xmlns="http://www.w3.org/2000/svg">
<path d="M25.5493 29.1354C27.4058 31.8829 29.3365 34.5934 31.1558 37.378C36.5024 45.5465 42.2204 53.455 48.161 61.215C49.2006 62.5517 48.7922 62.9972 47.4927 63.517C34.7202 68.9008 22.6532 67.6384 12.0714 58.6902C1.48959 49.7049 -2.14908 37.935 1.60097 24.5685C5.38815 11.1648 14.7076 3.10777 28.4083 0.731504C43.4456 -1.86754 58.4087 6.85782 64.1266 21.0041C69.8816 35.1874 65.0919 51.6728 52.6908 60.4724C51.614 61.2521 51.1685 61.1036 50.4259 59.9897C42.2575 47.5514 34.0148 35.1132 25.8092 22.6749C25.2523 21.8209 24.6954 21.1155 23.5072 21.1155C21.3908 21.0783 21.0196 21.3754 21.0196 23.4917C21.0196 31.1775 21.0196 38.8261 20.9824 46.5118C20.9824 47.9227 21.0938 48.8881 22.9132 48.8881C24.8067 48.9252 25.0295 47.9227 25.0295 46.4376C24.9924 40.6825 25.0295 34.9646 25.0295 29.2096C25.2523 29.2096 25.4008 29.1725 25.5493 29.1354ZM45.562 43.9128C45.562 36.7469 45.562 29.5809 45.562 22.415C45.562 21.0041 45.1907 20.2615 43.557 20.2243C41.8862 20.2243 41.4035 20.8927 41.4406 22.4521C41.5149 26.462 41.7748 30.5091 41.3664 34.482C40.9579 38.5662 43.26 41.1652 45.562 43.9128Z" fill="white"/>
</svg>
