<svg width="77" height="45" viewBox="0 0 77 45" fill="none" xmlns="http://www.w3.org/2000/svg">
<path fill-rule="evenodd" clip-rule="evenodd" d="M49.5485 44.488C48.441 43.885 47.3288 43.2909 46.2274 42.6771C44.1038 41.4939 41.9877 40.2978 39.8666 39.1103C39.0011 38.6252 38.1518 38.1043 37.2547 37.6862C36.8262 37.4862 36.3035 37.4109 35.8234 37.4102C26.7439 37.3976 17.6643 37.4005 8.58439 37.4127C7.30764 37.4145 6.05026 37.3704 4.8653 36.82C3.11565 36.0076 1.81344 34.7405 1.25879 32.8847C0.959769 31.8841 0.828548 30.7984 0.823529 29.7501C0.787317 22.2628 0.83643 14.7751 0.790179 7.28814C0.765798 3.21231 3.93275 0.125678 7.87198 0.178024C14.1603 0.260846 20.4501 0.228933 26.7396 0.237897C31.5113 0.244709 36.2827 0.240772 41.0544 0.240413C45.6545 0.240055 50.2548 0.236474 54.8548 0.236474C58.7554 0.236474 62.6559 0.218907 66.5564 0.250458C68.0862 0.263007 69.667 0.168356 71.1327 0.513626C73.4632 1.06326 75.5305 3.1381 75.8514 5.89201C75.9945 7.1182 76.064 8.35946 76.0665 9.59389C76.0741 13.6963 76.0235 17.799 76.0185 21.9013C76.0149 24.4602 76.0375 27.0191 76.0787 29.5776C76.1307 32.737 75.0583 35.2966 72.1097 36.7397C71.2704 37.1506 70.2486 37.3585 69.3081 37.3657C62.1697 37.4206 55.0305 37.403 47.8914 37.4062C46.8993 37.4069 46.8416 37.5364 47.2414 38.4815C48.0706 40.4405 48.8637 42.4146 49.6719 44.3826C49.6306 44.4181 49.5898 44.4529 49.5485 44.488ZM12.2813 23.476C12.22 23.4699 12.1586 23.4638 12.0977 23.4577C11.4423 20.123 10.7621 16.7929 10.1408 13.4521C9.76863 11.45 9.50296 9.42789 9.1602 7.42045C8.97305 6.32512 8.39688 5.51626 7.23594 5.31727C5.34036 4.99172 3.36053 6.0867 3.78431 8.79472C4.02597 10.3396 4.25795 11.8875 4.56736 13.4191C5.56517 18.3594 6.53499 23.3068 7.65004 28.2212C8.02471 29.8723 8.67868 31.4922 9.42587 33.0181C10.1709 34.5387 11.4853 34.6616 12.6864 33.4544C13.3812 32.7564 14.0876 32.0124 14.5615 31.1616C15.9986 28.5823 17.3276 25.9424 18.6922 23.3233C19.1802 22.3868 19.6502 21.4403 20.1705 20.4152C20.2845 20.5963 20.354 20.6673 20.3791 20.7515C21.2124 23.4932 22.2489 26.15 23.697 28.6318C24.7389 30.4184 25.8873 32.1332 27.4699 33.4928C28.7592 34.6007 30.3109 34.6017 31.0567 33.4006C31.4894 32.7029 31.7121 31.7865 31.7583 30.9537C31.8774 28.8042 31.6752 26.6272 31.9154 24.4961C32.2865 21.1982 32.877 17.9223 33.4542 14.6514C33.8608 12.3475 34.5373 10.1109 35.5699 7.99768C36.0776 6.95972 35.9371 5.72816 35.2064 4.93687C34.3534 4.01328 33.1272 3.73148 32.0097 4.16279C31.0897 4.5181 30.6279 5.29614 30.26 6.10535C28.9797 8.92021 28.1436 11.8774 27.6162 14.9192C27.2412 17.0826 26.9213 19.2561 26.5671 21.4872C26.466 21.2883 26.348 21.1301 26.3018 20.9534C25.4883 17.8603 24.622 14.7787 23.9007 11.6644C23.4532 9.73443 22.0983 8.64951 20.543 9.36694C19.9102 9.65843 19.2874 10.235 18.9443 10.8423C17.6489 13.133 16.4707 15.4893 15.2478 17.8208C14.2593 19.7064 13.2701 21.5909 12.2813 23.476ZM72.4396 16.7754C72.4894 14.85 71.9753 12.3536 70.2726 10.1837C68.6879 8.16406 66.5327 7.28384 64.0832 7.30212C61.0235 7.32471 58.8063 9.00876 57.1634 11.4715C55.7978 13.5188 54.8993 15.755 54.5741 18.2228C54.1847 21.1857 54.3536 24.0142 55.7171 26.7742C58.0067 31.4076 64.7683 32.3899 68.3293 28.407C71.0976 25.311 72.4335 21.6701 72.4396 16.7754ZM53.0801 16.8661C53.1367 15.6815 52.8463 13.8909 52.1117 12.1649C49.7031 6.50797 42.3914 5.74931 38.7659 10.2181C36.9732 12.4285 35.7736 14.8723 35.3071 17.6843C34.8658 20.3432 34.874 22.9508 35.7804 25.5416C37.8377 31.4226 45.2163 32.718 49.1581 28.1997C51.8048 25.1658 53.0772 21.578 53.0801 16.8661Z" fill="white"/>
<path fill-rule="evenodd" clip-rule="evenodd" d="M59.875 20.541C59.9231 17.7017 60.7814 15.4257 62.6695 13.6194C64.0366 12.3118 65.6098 12.6507 66.2885 14.4118C67.5427 17.6655 67.0898 20.7428 65.0921 23.5903C64.8816 23.8904 64.5952 24.1478 64.3101 24.3837C62.6322 25.7731 61.1951 25.393 60.4426 23.3605C60.2705 22.8958 60.1135 22.4183 60.0217 21.9332C59.9216 21.3986 59.9048 20.8486 59.875 20.541Z" fill="white"/>
<path fill-rule="evenodd" clip-rule="evenodd" d="M47.6647 17.2407C47.4223 20.1782 46.9752 22.5976 44.9456 24.3774C43.2931 25.8262 41.6155 25.3261 40.9751 23.2021C39.9207 19.7035 40.669 16.5638 43.022 13.844C44.2687 12.4041 46.0452 12.3872 46.8153 14.2964C47.2452 15.3616 47.461 16.5133 47.6647 17.2407Z" fill="white"/>
</svg>
