<svg width="58" height="58" viewBox="0 0 58 58" fill="none" xmlns="http://www.w3.org/2000/svg">
<path fill-rule="evenodd" clip-rule="evenodd" d="M0.488831 0.050293C4.33293 0.050293 7.85331 0.050293 11.6574 0.050293C11.6574 19.1366 11.6574 38.158 11.6574 57.5184C8.08436 57.5184 4.41866 57.5184 0.488831 57.5184C0.488831 38.4455 0.488831 19.4226 0.488831 0.050293Z" fill="white"/>
<path fill-rule="evenodd" clip-rule="evenodd" d="M23.5467 57.5999C23.5467 53.8265 23.5467 50.22 23.5467 46.3536C34.8875 46.3536 46.1576 46.3536 57.7403 46.3536C57.7403 49.9498 57.7403 53.6439 57.7403 57.5999C46.4567 57.5999 35.0959 57.5999 23.5467 57.5999Z" fill="white"/>
<path fill-rule="evenodd" clip-rule="evenodd" d="M23.6092 0.11377C35.118 0.11377 46.3962 0.11377 57.8628 0.11377C57.8628 3.86253 57.8628 7.44943 57.8628 11.2328C46.4131 11.2328 35.1361 11.2328 23.6092 11.2328C23.6092 7.61397 23.6092 4.02169 23.6092 0.11377Z" fill="white"/>
<path fill-rule="evenodd" clip-rule="evenodd" d="M57.9046 23.4598C57.9046 27.2209 57.9046 30.7186 57.9046 34.4178C46.4834 34.4178 35.2064 34.4178 23.6437 34.4178C23.6437 30.9247 23.6437 27.3424 23.6437 23.4598C34.8977 23.4598 46.2497 23.4598 57.9046 23.4598Z" fill="white"/>
</svg>
