<svg width="67" height="69" viewBox="0 0 67 69" fill="none" xmlns="http://www.w3.org/2000/svg">
<path fill-rule="evenodd" clip-rule="evenodd" d="M66.6331 0.706055H0.124634V68.9441H66.6331V0.706055ZM39.6492 57.3881L41.1752 56.4982L44.8815 54.3367C44.9584 54.4256 45.0362 54.5103 45.1126 54.5935C45.2728 54.7679 45.427 54.9358 45.5547 55.122C47.1815 57.4902 49.441 58.3825 52.2497 58.038C53.8258 57.8449 55.0301 56.902 55.3263 55.5972C55.5932 54.4217 54.98 53.1492 53.5448 52.4025C52.4309 51.8229 51.2857 51.3042 50.1403 50.7855L50.1402 50.7855L50.1399 50.7854C49.378 50.4403 48.6159 50.0952 47.8628 49.7321C45.2354 48.4653 42.9793 46.7971 42.0468 43.8583C40.2083 38.065 43.8357 32.748 49.9201 32.338C53.9365 32.0669 57.354 33.1815 59.623 36.7687C59.7131 36.911 59.7849 37.065 59.87 37.2478L59.8701 37.2479C59.9141 37.3424 59.9617 37.4446 60.0173 37.5568C58.9469 38.2447 57.8898 38.9238 56.9284 39.5414L56.9123 39.5518L55.494 40.4629C55.0384 40.1863 54.6129 39.9012 54.2025 39.6262L54.2024 39.6261C53.3185 39.0339 52.5043 38.4883 51.6088 38.1742C50.1502 37.6623 48.6458 38.5229 48.2312 39.6873C47.738 41.0737 48.2123 42.4485 49.6706 43.247C50.4933 43.6977 51.3521 44.0818 52.2111 44.466L52.2112 44.466L52.2114 44.4661C52.9059 44.7768 53.6006 45.0875 54.2766 45.4336L54.3152 45.4534C55.6974 46.1613 57.0942 46.8768 58.3599 47.7661C61.4685 49.9509 62.2803 53.1505 61.7535 56.6876C61.2586 60.0098 59.1525 62.1082 56.014 63.2136C50.532 65.1439 44.1621 63.5033 40.9015 59.2898C40.6207 58.9268 40.3755 58.5359 40.0985 58.0939C39.9596 57.8724 39.8127 57.6381 39.6492 57.3881ZM23.049 55.4798C22.9193 55.2844 22.7837 55.0802 22.6363 54.8651C22.1915 55.1324 21.7601 55.3988 21.336 55.6608C20.3692 56.2578 19.4403 56.8314 18.4767 57.3388C17.4804 57.8635 17.4445 58.3796 18.027 59.2717C20.5814 63.185 24.3365 64.3688 28.7116 63.8535C33.336 63.3088 36.1764 60.5484 36.3415 55.9797C36.525 50.9007 36.5337 45.8156 36.5425 40.7303C36.5466 38.3843 36.5506 36.0383 36.5718 33.6928C36.5792 32.8968 36.2347 32.6076 35.4646 32.6242C35.3257 32.6272 35.1868 32.6304 35.0478 32.6336C33.8309 32.6617 32.6109 32.6898 31.3996 32.6095C30.2176 32.531 29.9259 32.9904 29.9332 34.1187C29.9739 40.3453 29.962 46.5722 29.95 52.7991C29.9488 53.3934 29.9477 53.9877 29.9466 54.582C29.9432 56.4496 29.3652 57.4734 28.1562 57.8992C26.5247 58.4738 24.9229 58.0018 23.8254 56.5902C23.5578 56.2459 23.3159 55.8817 23.049 55.4798Z" fill="white"/>
</svg>
