<svg width="18" height="17" viewBox="0 0 18 17" fill="none" xmlns="http://www.w3.org/2000/svg">
<path fill-rule="evenodd" clip-rule="evenodd" d="M17.4319 9.51519C17.3865 9.74944 17.3426 9.9839 17.2955 10.2177C16.6373 13.4776 14.7522 15.7069 11.6588 16.9157C11.1346 17.1205 10.8981 16.9537 10.8956 16.3992C10.8925 15.7216 10.8876 15.0438 10.897 14.3663C10.9058 13.7213 10.805 13.1138 10.3403 12.5846C10.7218 12.5045 11.0752 12.445 11.4206 12.3549C13.1383 11.9066 14.0761 10.7729 14.239 9.0037C14.3389 7.91847 14.2129 6.90543 13.4863 6.03084C13.4228 5.95443 13.4353 5.78272 13.4633 5.66767C13.6112 5.06161 13.5527 4.47131 13.3886 3.87767C13.3218 3.63652 13.1917 3.57906 12.9655 3.60492C12.2967 3.68141 11.7344 4.00834 11.1622 4.32662C11.0041 4.41451 10.7768 4.46215 10.6033 4.42504C9.35365 4.15745 8.10761 4.13559 6.86396 4.43564C6.63262 4.4915 6.4657 4.43891 6.25732 4.34144C5.6827 4.07269 5.09037 3.83946 4.49578 3.61691C4.24883 3.52452 4.09782 3.64749 4.02925 3.91522C3.87672 4.51111 3.82108 5.1017 3.97783 5.70667C4.00601 5.81541 3.98633 5.97419 3.92328 6.0636C2.06297 8.70227 3.46176 12.0123 6.64809 12.4985C6.77898 12.5184 6.90892 12.545 7.01148 12.5635C6.8726 12.9189 6.74244 13.2712 6.59434 13.6157C6.56151 13.6921 6.47507 13.7644 6.39612 13.7991C5.52407 14.1828 4.64294 13.9236 4.11002 13.1156C3.83692 12.7017 3.52822 12.3358 3.03685 12.1891C2.86841 12.1388 2.67883 12.1239 2.50364 12.1412C2.30643 12.1607 2.26191 12.288 2.4026 12.4419C2.46703 12.5124 2.56015 12.557 2.62261 12.6288C2.9125 12.9618 3.31279 13.2559 3.46002 13.6448C3.89096 14.7827 4.88707 15.1736 6.15577 15.0136C6.26284 15.0001 6.36852 14.9762 6.51967 14.949C6.51967 15.5429 6.54524 16.1164 6.50907 16.6861C6.49069 16.9749 6.20226 17.0629 5.84243 16.9385C4.55091 16.4917 3.42697 15.7764 2.47872 14.7947C1.1063 13.3739 0.293225 11.6827 0.0650071 9.71523C0.0570899 9.64695 0.0222988 9.58173 0 9.51512C0 8.98249 0 8.44979 0 7.91716C0.0224441 7.83697 0.0560001 7.75823 0.0655878 7.67652C0.482364 4.14605 3.06307 1.17849 6.50391 0.289884C6.96891 0.169819 7.44576 0.0955143 7.91716 0C8.44979 0 8.98242 0 9.51512 0C9.59487 0.0223714 9.67332 0.0560739 9.75459 0.0654437C13.2752 0.473141 16.2532 3.06242 17.1421 6.50282C17.2623 6.96819 17.3367 7.44547 17.4323 7.91716C17.4319 8.44986 17.4319 8.98256 17.4319 9.51519Z" fill="white"/>
</svg>
