<svg width="69" height="69" viewBox="0 0 69 69" fill="none" xmlns="http://www.w3.org/2000/svg">
<path fill-rule="evenodd" clip-rule="evenodd" d="M19.229 65.5299C7.84832 59.9992 0 48.3283 0 34.8234C0 29.8771 1.06081 25.1813 2.95391 20.9381L19.229 65.5299ZM54.3377 23.6921C55.6368 25.9649 57.1514 28.8851 57.1514 33.1017C57.1514 35.8423 56.1632 38.9955 54.8228 43.2724C54.7347 43.5537 54.645 43.8399 54.5539 44.1312L51.1508 55.5034L38.8209 18.8269C40.8737 18.7191 42.7259 18.5016 42.7259 18.5016C44.5639 18.2841 44.3477 15.5827 42.5072 15.6912C42.5072 15.6912 36.9824 16.1242 33.4143 16.1242C30.0618 16.1242 24.4272 15.6912 24.4272 15.6912C22.5887 15.5827 22.3731 18.3938 24.2117 18.5016C24.2117 18.5016 25.9522 18.7191 27.7895 18.8269L33.1053 33.3913L25.6387 55.7845L13.2141 18.8282C15.2708 18.7204 17.1191 18.5029 17.1191 18.5029C18.9563 18.2854 18.7395 15.584 16.9003 15.6925C16.9003 15.6925 11.3761 16.1255 7.80742 16.1255C7.16665 16.1255 6.41227 16.1086 5.61179 16.0846C11.7124 6.82163 22.1992 0.706055 34.1187 0.706055C43.0012 0.706055 51.0884 4.10143 57.1586 9.66258C57.1063 9.65959 57.0545 9.65528 57.0026 9.65098C56.9084 9.64315 56.814 9.63532 56.7165 9.63532C53.3659 9.63532 50.9872 12.5548 50.9872 15.6912C50.9872 18.2841 52.3671 20.5107 53.9389 23.047C54.0707 23.2597 54.2039 23.4746 54.3377 23.6921ZM24.4805 67.5541L34.7173 37.8079L45.2059 66.54C45.2741 66.7088 45.3572 66.864 45.4487 67.0101C41.9021 68.2572 38.0919 68.9441 34.1187 68.9441C30.7694 68.9441 27.537 68.4526 24.4805 67.5541ZM64.2863 21.9626C64.2863 20.7076 64.2032 19.541 64.0564 18.4542C66.7215 23.3142 68.2367 28.8922 68.2361 34.8241C68.2361 47.411 61.4135 58.4002 51.2702 64.3152L61.692 34.1833C63.6396 29.3168 64.2863 25.4248 64.2863 21.9626Z" fill="white"/>
</svg>
