<svg width="80" height="79" viewBox="0 0 80 79" fill="none" xmlns="http://www.w3.org/2000/svg">
<path d="M40.2021 46.9828C44.4263 46.9828 47.8508 43.5583 47.8508 39.3341C47.8508 35.1098 44.4263 31.6854 40.2021 31.6854C35.9779 31.6854 32.5534 35.1098 32.5534 39.3341C32.5534 43.5583 35.9779 46.9828 40.2021 46.9828Z" fill="white"/>
<path d="M40.2021 53.3979C60.7782 53.3979 77.4585 47.1013 77.4585 39.3342C77.4585 31.567 60.7782 25.2705 40.2021 25.2705C19.626 25.2705 2.94571 31.567 2.94571 39.3342C2.94571 47.1013 19.626 53.3979 40.2021 53.3979Z" stroke="white" stroke-width="4"/>
<path d="M28.047 46.3362C38.301 64.0966 52.1108 75.3204 58.8921 71.4053C65.6733 67.4901 62.8581 49.9186 52.6041 32.1581C42.3501 14.3977 28.5403 3.17387 21.7591 7.08903C14.9778 11.0042 17.793 28.5757 28.047 46.3362Z" stroke="white" stroke-width="4"/>
<path d="M28.047 32.1582C17.793 49.9186 14.9778 67.4902 21.759 71.4053C28.5403 75.3205 42.3501 64.0967 52.6041 46.3362C62.8581 28.5758 65.6733 11.0042 58.892 7.08907C52.1108 3.17391 38.301 14.3977 28.047 32.1582Z" stroke="white" stroke-width="4"/>
</svg>
