<svg width="88" height="54" viewBox="0 0 88 54" fill="none" xmlns="http://www.w3.org/2000/svg">
<path d="M22.6605 17.5106C24.1758 8.33727 32.0386 1.25253 41.089 0.638245C50.549 -0.0169909 58.4528 2.93157 64.6366 10.3849C72.1309 19.4353 82.328 17.142 87.1194 10.6716C87.2423 10.5487 87.4061 10.4668 87.6109 10.3439C86.9556 17.1011 80.8947 24.1449 73.4413 25.9468C63.0395 28.4858 53.8662 26.1106 46.5357 17.9611C45.1433 16.4458 43.7919 14.9306 42.0719 13.7839C36.0929 9.72965 28.8034 10.6306 23.971 15.9953C23.6025 16.3639 23.2748 16.8144 22.6605 17.5106Z" fill="white"/>
<path d="M0.87384 43.4333C2.30717 34.5876 10.2929 27.421 19.2614 26.8477C28.6804 26.1924 36.6252 29.141 42.8499 36.5124C49.5251 44.4162 58.5346 44.4162 65.3327 36.7581C65.4556 36.5943 65.6603 36.5124 65.8241 36.3896C64.8003 45.0714 56.2413 52.6066 46.9861 53.0571C37.6899 53.5076 29.9499 50.4771 23.889 43.1876C17.7871 35.8162 8.2043 34.7924 0.87384 43.4333Z" fill="white"/>
</svg>
