<svg width="64" height="58" viewBox="0 0 64 58" fill="none" xmlns="http://www.w3.org/2000/svg">
<path d="M36.9175 0.510291C45.5409 0.510291 54.1394 0.535141 62.7628 0.485438C63.7569 0.485438 64.1048 0.559992 63.8811 1.728C60.7747 17.0115 57.7429 32.295 54.711 47.5785C54.5868 48.2247 54.3382 48.5477 53.6921 48.7714C44.5469 51.7784 35.4016 54.8351 26.2812 57.8918C25.7842 58.0657 25.3369 58.016 24.8398 57.8421C17.0117 54.8351 9.18357 51.8281 1.33058 48.8459C0.659599 48.5974 0.485628 48.3241 0.634735 47.5785C1.40512 43.9751 2.10098 40.3717 2.77197 36.7434C2.92107 35.973 3.19443 35.6499 4.03937 35.6748C6.84756 35.7245 9.6806 35.7245 12.4888 35.6748C13.3834 35.6499 13.7811 35.7742 13.4828 36.8428C13.1598 37.9362 13.0604 39.1291 12.787 40.2474C12.6379 40.8438 12.8367 41.0426 13.3337 41.2415C17.9809 43.0059 22.6032 44.7703 27.2255 46.5348C27.6977 46.7087 28.0954 46.659 28.5427 46.5099C33.836 44.7455 39.1293 42.981 44.4226 41.2415C45.0439 41.0426 45.3421 40.7444 45.4664 40.0734C46.0876 36.6937 46.7586 33.3388 47.5042 29.9839C47.7278 28.9401 47.4793 28.7413 46.4853 28.7413C32.991 28.7661 19.4968 28.7661 5.97775 28.7661C4.26301 28.7661 4.26302 28.7661 4.58609 27.126C5.10796 24.4917 5.65468 21.8575 6.10201 19.1984C6.25111 18.2541 6.64874 18.0304 7.56823 18.0304C21.1867 18.0553 34.8052 18.0304 48.4485 18.0801C49.5917 18.0801 50.039 17.7819 50.1881 16.6387C50.3869 15.1228 50.7348 13.6317 51.0827 12.1407C51.2567 11.3951 51.0827 11.1218 50.2627 11.1218C47.2805 11.1715 44.2984 11.1466 41.3162 11.1466C30.5805 11.1466 19.8696 11.1218 9.13387 11.1715C7.94101 11.1715 7.7919 10.8484 8.04041 9.7798C8.63684 7.07101 9.15872 4.36223 9.65574 1.6286C9.80485 0.783655 10.1031 0.410882 11.0723 0.435733C19.6956 0.535138 28.319 0.510291 36.9175 0.510291Z" fill="white"/>
</svg>
