<svg width="62" height="69" viewBox="0 0 62 69" fill="none" xmlns="http://www.w3.org/2000/svg">
<path d="M30.8135 0.732372C40.4715 0.732372 50.1032 0.732372 59.7612 0.732372C61.5507 0.732372 61.6033 0.732371 61.3665 2.54818C60.577 8.67983 59.7612 14.7852 58.9454 20.9168C57.9191 28.6011 56.8927 36.2854 55.8664 43.9697C55.3401 47.8382 54.8138 51.6803 54.3138 55.5488C54.2348 56.233 53.919 56.654 53.3137 56.9698C46.1031 60.6014 38.9188 64.2594 31.7345 67.9173C31.024 68.2858 30.4451 68.2068 29.7608 67.8647C22.6818 64.3647 15.6028 60.8646 8.52378 57.3909C7.7343 56.9962 7.36586 56.5225 7.23428 55.6277C5.86585 45.0223 4.44477 34.4433 3.05002 23.8379C2.12896 16.9431 1.2079 10.0483 0.260522 3.12714C-0.0815868 0.706058 -0.0815836 0.706055 2.41844 0.706055C11.8659 0.732371 21.3397 0.732372 30.8135 0.732372ZM30.7082 7.75876C23.5766 7.75876 16.4186 7.78508 9.28694 7.73245C8.23429 7.73245 7.70797 7.8114 7.9185 9.15352C8.55008 13.0746 9.02377 17.0483 9.5501 20.9958C10.8922 30.9695 12.2343 40.9433 13.5501 50.9171C13.6817 51.8645 14.0765 52.4698 14.9975 52.8908C19.8923 55.233 24.7608 57.6277 29.6293 60.0488C30.4714 60.4699 31.1293 60.4699 31.9714 60.0488C36.1293 57.8909 40.3136 55.7856 44.4978 53.654C47.9979 51.8645 47.9189 51.8645 48.3663 47.9961C49.2347 40.7854 50.1821 33.5748 51.1032 26.3642C51.84 20.6273 52.5769 14.9167 53.3401 9.17984C53.498 7.99561 53.1822 7.70613 51.9979 7.70613C44.8926 7.78508 37.7873 7.75876 30.7082 7.75876Z" fill="white"/>
<path d="M30.8661 14.1799C35.5241 14.1799 40.1557 14.1799 44.8136 14.1799C46.4189 14.1799 46.4452 14.2588 46.2084 15.8378C45.9979 17.1273 45.7347 18.4431 45.6558 19.7326C45.5768 20.8642 45.1031 21.2063 43.9978 21.2063C37.682 21.1536 31.3661 21.18 25.0503 21.18C23.2871 21.18 23.2871 21.18 23.4976 22.9695C23.6292 24.0221 23.9187 25.0484 23.945 26.0748C23.9976 27.3906 24.6555 27.6274 25.8134 27.6274C31.1556 27.5748 36.5241 27.6011 41.8662 27.6011C44.4715 27.6011 44.4452 27.6011 44.1031 30.1537C43.3662 35.5749 42.6294 40.996 41.9452 46.4171C41.8399 47.3381 41.4715 47.9171 40.6294 48.3382C37.682 49.7592 34.7346 51.2592 31.8135 52.7592C31.1293 53.1277 30.524 53.1014 29.8398 52.7592C26.8661 51.2329 23.8924 49.7592 20.8923 48.2855C20.2081 47.9434 19.8134 47.4697 19.7081 46.6802C19.5239 45.2592 19.3397 43.8118 19.0502 42.3907C18.866 41.496 19.1028 41.0486 20.0502 41.0486C21.6292 41.0749 23.2081 41.0749 24.7871 41.0486C25.524 41.0486 26.024 41.3381 26.0503 42.0749C26.1029 43.0223 26.6555 43.417 27.4187 43.7855C31.0766 45.6276 31.0766 45.6276 34.6819 43.5486C35.1819 43.2591 35.4451 42.917 35.4978 42.3381C35.7083 40.2591 35.9714 38.1538 36.2346 36.0749C36.3662 35.0222 36.1293 34.5748 34.9451 34.5748C29.7608 34.6275 24.6029 34.5748 19.4186 34.6275C18.2607 34.6538 17.787 34.2327 17.6291 33.1275C16.866 27.2327 16.0765 21.3115 15.287 15.4167C15.1291 14.3378 15.6554 14.1536 16.5502 14.1536C21.3134 14.1799 26.0766 14.1799 30.8661 14.1799Z" fill="white"/>
</svg>
