<svg width="152" height="67" viewBox="0 0 152 67" fill="none" xmlns="http://www.w3.org/2000/svg">
<path d="M102.501 0.309195L102.017 2.75322C101.291 7.40028 101.533 8.74275 103.573 10.4639L105.509 12.0473L103.504 20.9628C102.294 26.2639 100.842 30.7388 99.9085 32.1846C99.1134 33.4582 98.1801 35.3171 97.9726 36.3153C97.6269 37.5201 96.4861 38.7249 94.7577 39.7576C93.2366 40.6181 90.2291 42.9589 88.0858 44.8177C86.3919 46.3323 85.2166 47.2961 84.5598 47.6748L82.4856 49.3271C81.8288 50.3942 81.4485 51.2547 81.3102 51.9088C81.172 52.5972 81.2411 53.0103 81.4485 53.3545C81.6559 53.6643 82.0016 53.9053 82.5202 54.043C83.1078 54.1807 83.6955 54.2151 84.2832 54.1807C85.6314 54.0774 86.9796 53.8364 88.2587 53.4922C88.7081 53.3889 89.0538 53.2513 89.3649 53.148C89.8489 52.5628 90.9205 51.4957 92.8218 49.6025C97.9035 44.6112 99.8394 41.8918 97.8344 42.6147C97.1084 42.89 97.4195 42.2016 98.6986 40.8935C101.36 38.3118 102.916 34.3876 106.096 22.0988C108.62 12.3916 108.62 12.2539 110.487 12.2539C111.351 12.2539 113.84 12.3916 113.84 12.3916V0.27478H108.136H102.501V0.309195ZM126.734 20.2055C126.319 20.2055 125.663 20.8251 125.248 21.4791C124.522 22.6839 125.386 23.4068 136.379 30.2569C142.913 34.3876 148.202 37.8987 148.063 38.1741C147.925 38.3807 142.601 41.8229 136.172 45.816C124.556 52.9759 124.487 53.0447 125.559 54.5249C126.907 56.246 125.559 56.8656 140.631 47.4682L151.589 40.4804V35.2138L139.352 27.7096C132.784 23.6134 127.045 20.2744 126.734 20.2055ZM25.239 20.9284C24.8933 20.9284 19.1548 24.3362 12.5521 28.3637L0.210876 35.9022V41.1689L12.4829 48.8107C19.2931 53.0103 25.0316 56.4526 25.3081 56.4526C25.5847 56.4526 26.1032 55.833 26.6563 55.1101C27.4514 53.8364 26.7946 53.3201 15.4905 46.1946C4.73945 39.4822 3.59867 38.5528 4.67031 37.8299C5.32713 37.348 10.4088 34.2499 15.8707 30.8421C28.3502 23.2003 27.6934 23.7166 26.6909 22.1332C26.3106 21.4791 25.6538 20.894 25.239 20.9284ZM80.0312 21.1005C78.199 21.1005 74.2236 23.8887 62.3663 33.5271C61.8478 34.7319 61.8132 35.558 62.0552 36.1088C62.1935 36.4874 62.4701 36.7284 62.8849 36.9349C63.2651 37.107 63.7491 37.2447 64.3022 37.2791C65.3739 37.3824 66.6529 37.2103 67.69 37.0038L68.3814 36.8317C68.6233 36.5218 68.9345 36.2465 69.2802 36.0743C70.0061 35.6613 73.0828 32.873 76.1594 29.8783C81.5522 24.4395 82.8313 21.9611 80.6189 21.1693C80.4114 21.1349 80.2386 21.1005 80.0312 21.1005ZM93.8935 24.887C92.2687 24.9214 89.3649 26.8146 84.3524 30.7733C81.8288 32.8042 80.2386 33.9057 79.4089 34.1123L76.0903 36.7284C74.8458 39.0003 74.673 40.3772 74.9841 41.1689C75.157 41.5475 75.4681 41.8574 75.8483 41.9951C76.3323 42.2016 76.8508 42.2704 77.3693 42.2704C78.6138 42.2704 79.8238 42.0639 81.0337 41.7197C81.656 41.5476 82.2782 41.3754 82.8659 41.1345L83.0387 41.0656L83.3844 40.8935C84.0066 40.0674 85.4586 38.5528 87.2907 36.7972C93.0292 31.2896 95.9676 27.3654 95.3799 25.8852C95.0688 25.1968 94.6194 24.8526 93.8935 24.887ZM78.5793 31.6683C78.0953 31.7027 77.0583 32.5288 75.1915 34.1811C72.4605 36.5907 69.4876 37.9676 68.4505 37.348C68.2085 37.4168 67.9666 37.4512 67.7246 37.4857C66.6875 37.6922 65.3738 37.8643 64.1985 37.7611C63.6454 37.7266 63.0923 37.5889 62.6083 37.3824C62.1243 37.1759 61.7441 36.7972 61.5367 36.3153C61.2947 35.7645 61.2947 35.0417 61.5712 34.1467L57.4575 37.4857L48.193 45.1275V57.5197L78.6139 33.6648C78.6139 33.3894 78.6484 33.1484 78.7176 32.9075C78.9595 32.0469 78.9595 31.6338 78.5793 31.6683ZM91.681 35.6613C91.2316 35.6613 90.4365 36.3153 89.2266 37.6234C87.5673 39.4133 84.94 41.1345 83.5227 41.4787L83.3153 41.582C83.0733 41.6852 82.8659 41.7541 82.6239 41.8574C82.2436 41.995 81.7596 42.1327 81.172 42.2704C80.0312 42.5802 78.6138 42.8556 77.3693 42.8212C76.7817 42.8212 76.194 42.7179 75.6409 42.477C75.1224 42.2704 74.7076 41.8574 74.4656 41.341C74.0853 40.4804 74.2581 39.2412 75.0532 37.4857L48.2275 58.5179V66.0909H60.0156L85.0092 46.5388C85.666 45.816 86.6339 44.8521 87.9476 43.6129C91.4736 40.3428 92.2687 39.2412 92.2687 37.5545C92.2687 36.3153 92.1304 35.6613 91.681 35.6613ZM97.6269 47.9158L95.4836 50.0499C94.2737 51.1859 92.1304 52.5628 90.6785 53.1824L90.402 53.3201L90.3674 53.3545L90.2982 53.4234C90.2291 53.4578 90.2291 53.4578 90.16 53.4922C89.5723 53.6987 88.9846 53.9053 88.3969 54.0774C87.0487 54.456 85.7005 54.697 84.2832 54.8003C83.6264 54.8347 82.9696 54.8003 82.3128 54.6282C81.7597 54.4905 81.2757 54.1807 80.93 53.7332C80.6189 53.2513 80.5497 52.6317 80.7226 51.8744C80.8609 51.3236 81.0683 50.8072 81.3102 50.2909L61.1564 66.1598H87.9821L91.197 62.511C95.5873 57.382 97.5923 53.7332 97.5923 50.6007V47.9158H97.6269Z" fill="white"/>
</svg>
