<svg width="69" height="69" viewBox="0 0 69 69" fill="none" xmlns="http://www.w3.org/2000/svg">
<path fill-rule="evenodd" clip-rule="evenodd" d="M0.543152 34.7478C0.544525 15.9011 15.8563 0.701936 34.8376 0.706056C53.6218 0.710175 68.7887 16.0783 68.7812 35.0994C68.7736 53.8266 53.3533 68.9571 34.2876 68.9441C15.7705 68.9317 0.541779 53.4984 0.543152 34.7478ZM34.6632 54.3038C39.6806 54.3038 44.698 54.3073 49.7147 54.3025C52.7264 54.3004 54.1354 52.9127 54.1361 49.9394C54.1396 39.86 54.1396 29.7819 54.1361 19.7024C54.1354 16.7862 52.7209 15.349 49.8383 15.3477C39.7149 15.3415 29.5915 15.3415 19.4681 15.3477C16.6405 15.349 15.1848 16.7855 15.1827 19.5781C15.1765 29.7469 15.1758 39.9142 15.1827 50.0823C15.1848 52.8715 16.6432 54.2983 19.4771 54.3017C24.5398 54.3086 29.6018 54.3038 34.6632 54.3038Z" fill="white"/>
<path fill-rule="evenodd" clip-rule="evenodd" d="M50.4268 37.1249C48.5223 36.9717 46.7922 36.7118 45.0713 36.7631C44.4895 36.7802 43.5567 37.5291 43.4705 38.0509C43.3822 38.5822 43.9959 39.4555 44.553 39.807C45.7252 40.547 47.0867 40.999 48.3253 41.6514C51.0419 43.082 51.9817 45.7362 50.7198 48.2644C49.7983 50.1095 48.0598 50.8576 46.156 50.9643C44.2727 51.0703 42.3625 50.7742 40.4687 50.6114C39.4567 50.5246 39.1015 49.9283 39.2039 48.9599C39.2816 48.2234 39.2188 47.4725 39.2188 46.7093C40.5682 47.1784 41.7934 47.7522 43.0864 48.0038C43.9761 48.1769 45.0141 48.0674 45.8855 47.7898C47.2597 47.3521 47.4892 45.9714 46.3495 45.0906C45.5819 44.4976 44.6131 44.1509 43.741 43.6818C42.7516 43.1491 41.6599 42.7299 40.8062 42.0378C38.3693 40.0635 38.6743 36.255 41.3895 34.6589C44.0736 33.0805 46.973 33.3178 49.8647 34.0249C50.1013 34.0824 50.3802 34.5002 50.4014 34.7683C50.4692 35.645 50.4268 36.5293 50.4268 37.1249Z" fill="white"/>
<path fill-rule="evenodd" clip-rule="evenodd" d="M32.9216 50.9868C31.5359 50.9868 30.4032 50.9868 29.1205 50.9868C29.1205 46.3591 29.1205 41.775 29.1205 37.0456C27.4579 37.0456 25.9386 37.0456 24.3367 37.0456C24.3367 35.9399 24.3367 34.9803 24.3367 33.9272C28.7652 33.9272 33.1555 33.9272 37.7252 33.9272C37.7497 34.3683 37.7859 34.8363 37.7981 35.3043C37.8111 35.7952 37.8009 36.2875 37.8009 36.9362C36.1983 36.9362 34.6374 36.9362 32.9216 36.9362C32.9216 41.6767 32.9216 46.2629 32.9216 50.9868Z" fill="white"/>
</svg>
