<svg width="48" height="69" viewBox="0 0 48 69" fill="none" xmlns="http://www.w3.org/2000/svg">
<path fill-rule="evenodd" clip-rule="evenodd" d="M26.1311 44.4842C26.1311 48.4394 26.1536 52.2126 26.1266 55.9853C26.0744 63.2437 20.3407 68.9571 13.154 68.9441C7.78107 68.9344 2.97737 65.4566 1.21075 60.2977C-0.535084 55.1995 1.09781 49.5671 5.30534 46.1783C5.54358 45.9867 5.78689 45.8019 6.1555 45.5144C2.61326 42.8411 0.548263 39.3832 0.53253 34.9035C0.516797 30.4102 2.49189 26.9074 6.12065 24.1905C5.52897 23.6627 4.96483 23.1977 4.44338 22.6886C0.667961 19.0033 -0.508675 13.579 1.40685 8.74669C3.33642 3.87865 7.99404 0.711535 13.245 0.708134C20.2868 0.704165 27.3291 0.706996 34.3709 0.707563C40.2989 0.707563 45.0015 3.95973 46.8411 9.33011C48.6791 14.696 46.953 20.1502 42.2465 23.8566C42.1779 23.9104 42.1251 23.9836 41.9571 24.1627C45.6471 26.967 47.6941 30.6557 47.5272 35.3934C47.4255 38.2759 46.3781 40.8187 44.5649 43.0532C41.1598 47.2477 33.5578 50.0666 26.1311 44.4842ZM21.814 22.0275C21.814 16.3544 21.814 10.7141 21.814 4.9474C18.7303 4.9474 15.6634 4.88787 12.6 4.96157C8.29634 5.0659 4.7468 8.88617 4.71084 13.3403C4.67431 17.8931 8.14406 21.8466 12.4679 22.0048C15.5421 22.1176 18.623 22.0275 21.814 22.0275ZM26.189 22.0354C29.1777 22.0354 32.0704 22.0485 34.9631 22.032C39.1639 22.0082 42.909 18.6818 43.3107 14.6404C43.7765 9.95095 40.9165 5.63854 36.4712 5.10501C33.1071 4.70133 29.6571 5.02508 26.189 5.02508C26.189 10.6738 26.189 16.2517 26.189 22.0354ZM21.8798 26.2798C18.8421 26.2798 15.945 26.2611 13.0484 26.2843C8.90488 26.3172 5.21149 29.5785 4.75467 33.5728C4.24334 38.0406 6.82809 41.9895 10.994 43.1002C11.3329 43.1904 11.6767 43.327 12.0189 43.3287C15.2965 43.3457 18.5741 43.3395 21.8803 43.3395C21.8798 37.6057 21.8798 32.0289 21.8798 26.2798ZM21.6769 47.7035C18.4111 47.7035 15.0392 47.3769 11.756 47.7829C7.27142 48.3379 4.52147 52.2195 4.72994 56.9004C4.89795 60.6821 8.24521 64.2575 12.0066 64.673C16.6271 65.1839 20.9015 62.5452 21.5758 58.1035C22.086 54.7402 21.6769 51.2352 21.6769 47.7035ZM34.7484 43.3735C39.5932 43.3741 43.3281 39.6904 43.3495 34.8893C43.3714 29.9997 39.6516 26.2781 34.7445 26.2787C29.9054 26.2792 26.1452 29.9833 26.1351 34.7606C26.1238 39.6417 29.8554 43.3729 34.7484 43.3735Z" fill="white"/>
</svg>
