<svg width="118" height="49" viewBox="0 0 118 49" fill="none" xmlns="http://www.w3.org/2000/svg">
<path d="M50.0352 34.0924C50.0743 34.0924 50.1181 34.1016 50.1641 34.1223C50.2102 34.143 50.2539 34.1661 50.2931 34.1914C50.3345 34.219 50.3645 34.2559 50.3829 34.3019C50.4036 34.348 50.4151 34.3986 50.4151 34.4516C50.4266 34.546 50.4013 34.6312 50.3345 34.7118C50.2678 34.7924 50.1803 34.8315 50.0743 34.8315L48.6743 34.9306C46.2242 39.1145 43.4265 43.7453 40.281 48.8204C40.2027 48.9401 40.0945 49 39.9632 49C39.8964 49 39.8297 48.9793 39.7629 48.9401C39.6823 48.8872 39.6293 48.8112 39.6017 48.7099C39.5764 48.6108 39.5902 48.5141 39.6431 48.4197C42.5745 43.7038 45.2916 39.2274 47.797 34.9904L36.7049 35.6904C34.667 37.2494 32.4357 38.9741 30.011 40.8669C29.9304 40.9337 29.8406 40.959 29.7393 40.9475C29.6402 40.9337 29.5574 40.8876 29.4906 40.807C29.4238 40.7264 29.3962 40.6343 29.41 40.5261C29.4238 40.4202 29.4698 40.3396 29.5504 40.2866C31.6413 38.6494 33.5871 37.1434 35.3855 35.771L28.2517 36.2293C28.4382 36.3513 28.4843 36.5033 28.3922 36.6898C28.3369 36.8372 28.2241 36.9109 28.0514 36.9109C28.0122 36.9109 27.9639 36.904 27.9109 36.8901L26.6122 36.3099C26.5201 36.2707 26.4533 36.2039 26.4119 36.1095C26.3727 36.0174 26.3796 35.923 26.4326 35.8309C26.4994 35.6697 26.6122 35.5983 26.7734 35.6099C26.8264 35.5983 26.8655 35.5845 26.8931 35.5707L36.4447 34.972C38.151 33.6664 39.7168 32.4874 41.1422 31.4351C42.5676 30.3827 43.8156 29.4801 44.8887 28.7271C45.9617 27.9741 46.9173 27.3179 47.7555 26.7583C48.596 26.1988 49.3075 25.752 49.8947 25.4181C50.4796 25.0866 50.9839 24.8125 51.403 24.6007C51.8221 24.3865 52.1698 24.2461 52.4415 24.1793C52.7155 24.1125 52.932 24.0826 53.0909 24.0895C53.252 24.0964 53.3925 24.1263 53.5122 24.1793C53.7909 24.3128 53.9313 24.5661 53.9313 24.9392C53.9313 25.6047 52.3333 28.6764 49.1348 34.1522L50.0352 34.0924ZM37.7641 34.8914L48.2345 34.2121C51.5273 28.6028 53.1784 25.5125 53.1922 24.9392C53.1922 24.8862 53.1853 24.854 53.1714 24.8402C53.1576 24.8263 53.1392 24.8194 53.1116 24.8194C53.0839 24.8194 53.0379 24.8217 52.9711 24.8287C52.9043 24.8356 52.8283 24.8494 52.7408 24.8701C52.6556 24.8885 52.5359 24.93 52.3816 24.9898C52.2296 25.0497 52.0569 25.1234 51.8635 25.2086C51.6701 25.2961 51.4329 25.4112 51.1543 25.5586C50.8734 25.706 50.574 25.8764 50.2539 26.0675C49.9339 26.2609 49.5539 26.4958 49.1141 26.7675C48.6743 27.0415 48.2091 27.3432 47.7164 27.6771C45.2387 29.3304 41.9205 31.7344 37.7641 34.8914ZM60.9661 35.771C60.4986 36.2362 59.2966 36.8211 57.3577 37.5188C55.4189 38.2188 53.8369 38.5688 52.6119 38.5688C52.3056 38.5688 52.0454 38.5412 51.8336 38.4882C51.3132 38.3823 50.9931 37.9563 50.8734 37.2102C50.7536 36.5309 50.8158 35.5569 51.0645 34.2927C51.3109 33.0262 51.6701 31.7413 52.1421 30.4357C52.6165 29.1301 53.2014 27.9004 53.9014 26.7491C54.6014 25.5954 55.2968 24.8056 55.9899 24.3796C56.508 24.0457 56.8949 24.0066 57.1482 24.2599C57.2288 24.3405 57.2817 24.4142 57.3094 24.4786C57.3347 24.5454 57.3347 24.7066 57.3094 24.9599C57.2817 25.2132 57.1873 25.5287 57.0285 25.9086C56.8696 26.2886 56.6048 26.8435 56.2386 27.5781C55.8725 28.3103 55.3958 29.1692 54.811 30.1548C53.7701 31.9278 52.7731 33.5466 51.8129 35.0111C51.7737 35.0779 51.7185 35.124 51.654 35.1516C51.5319 35.9645 51.5135 36.6092 51.5941 37.0905C51.6724 37.5027 51.8059 37.7283 51.9925 37.7698C52.6326 37.9148 53.5974 37.825 54.8916 37.5004C56.1834 37.1734 57.3646 36.7842 58.4377 36.3306C59.5108 35.877 60.1785 35.5177 60.4456 35.2506C60.5124 35.1839 60.5953 35.1516 60.6966 35.1516C60.7957 35.1516 60.8832 35.1885 60.9545 35.2621C61.0282 35.3335 61.0651 35.421 61.0651 35.52C61.0651 35.6214 61.0328 35.7043 60.9661 35.771ZM52.0132 33.3325C52.7984 32.0936 53.5238 30.9008 54.1915 29.7564C54.857 28.6097 55.4097 27.5942 55.8495 26.7076C56.2893 25.8211 56.5357 25.2201 56.5886 24.9C56.5219 24.9254 56.4551 24.9599 56.3883 24.999C55.8172 25.3583 55.2162 26.0376 54.5899 27.0369C53.9636 28.0363 53.3925 29.236 52.8721 30.636C52.5267 31.5548 52.2389 32.4529 52.0132 33.3325ZM63.704 37.0306C62.9049 37.802 62.3085 38.3431 61.9148 38.6494C61.521 38.9557 61.1986 39.1076 60.9453 39.1076C60.92 39.1076 60.8924 39.1007 60.8647 39.0892C60.4526 39.0478 60.19 38.7484 60.0772 38.1889C59.9621 37.6293 60.0335 36.9869 60.2868 36.2592C60.5401 35.5339 60.9591 35.0042 61.544 34.6727C61.6384 34.6174 61.7305 34.6059 61.825 34.6312C61.9194 34.6588 61.9908 34.7141 62.0437 34.8016C62.099 34.8891 62.1105 34.9812 62.0852 35.0802C62.0575 35.1815 61.9977 35.2575 61.9056 35.3105C61.4911 35.55 61.1825 35.9576 60.9753 36.5309C60.768 37.1043 60.7128 37.6017 60.8049 38.03C60.8463 38.2418 60.8924 38.3547 60.9453 38.3685C61.171 38.3547 61.9194 37.7352 63.1835 36.5102C63.9434 35.7779 64.4731 35.3013 64.7724 35.0802C65.0718 34.8615 65.3297 34.7993 65.5415 34.8914C65.6751 34.9444 65.8478 35.0641 66.0619 35.2506C66.2208 35.4118 66.3613 35.5339 66.481 35.6214C66.6007 35.7066 66.8172 35.801 67.1304 35.9C67.4435 36.0013 67.8143 36.0635 68.2403 36.0911C68.8251 36.1303 69.6426 36.0635 70.688 35.8908C71.7334 35.7181 72.4795 35.573 72.9262 35.4602C73.373 35.3473 73.7552 35.2506 74.0753 35.1723C74.1697 35.1309 74.2618 35.1378 74.3539 35.1908C74.4483 35.2437 74.5082 35.3174 74.5358 35.4118C74.5473 35.4901 74.5473 35.5615 74.5358 35.6214C74.522 35.6812 74.4921 35.7342 74.446 35.7803C74.3976 35.8286 74.3424 35.8585 74.2756 35.8701C73.9279 35.9645 73.5157 36.0704 73.0368 36.1901C72.5555 36.3099 71.7864 36.4572 70.7272 36.6299C69.6679 36.8026 68.8251 36.8694 68.1988 36.8303C67.6945 36.8026 67.2478 36.7244 66.8609 36.5908C66.4741 36.4572 66.207 36.3375 66.0619 36.2293C65.9145 36.1234 65.7487 35.9829 65.5622 35.8102C65.4425 35.7043 65.3619 35.6375 65.3227 35.6099C65.1224 35.7043 64.5836 36.1763 63.704 37.0306ZM85.4068 35.8309C85.2318 35.9368 85.0223 36.0543 84.7759 36.1809C84.5295 36.3076 84.0782 36.524 83.4173 36.8303C82.7587 37.1365 82.1163 37.4036 81.4899 37.6293C80.8636 37.855 80.1475 38.0622 79.3415 38.2487C78.5356 38.4353 77.7987 38.5297 77.1332 38.5297C76.2398 38.5297 75.4868 38.3685 74.8743 38.0484C73.8888 37.5165 73.4766 36.9109 73.6355 36.2293C73.7022 35.9115 73.9049 35.6145 74.2457 35.3404C74.5842 35.0687 74.9572 34.8661 75.3648 34.7325C75.7701 34.599 76.1523 34.5253 76.5138 34.5115C77.1263 34.4861 77.4925 34.6727 77.6122 35.071C77.7849 35.6582 77.7066 36.1303 77.3727 36.4895C76.8938 37.0099 75.9612 37.1573 74.575 36.9293C74.7223 37.0905 74.9411 37.2425 75.2335 37.3898C75.648 37.6155 76.15 37.7467 76.7441 37.779C77.3359 37.8112 77.9231 37.779 78.501 37.68C79.0813 37.5787 79.7007 37.4267 80.3593 37.2194C81.0202 37.0122 81.5982 36.8073 82.0978 36.6C82.5975 36.3928 83.0972 36.1717 83.5969 35.9299C84.0966 35.6904 84.4374 35.52 84.617 35.421C84.7966 35.322 84.9325 35.2437 85.0269 35.1908C85.119 35.1516 85.2157 35.1447 85.317 35.1723C85.416 35.1977 85.4897 35.2552 85.5358 35.3404C85.5818 35.4279 85.5933 35.52 85.5657 35.6214C85.5404 35.7204 85.4851 35.7918 85.4068 35.8309ZM75.374 35.5316C74.948 35.7181 74.6486 35.923 74.4759 36.151C75.7263 36.3905 76.5069 36.3375 76.8132 35.9898C76.9605 35.8309 76.9859 35.5914 76.8938 35.2714C76.8799 35.2184 76.7073 35.2115 76.3734 35.2506C76.0395 35.2921 75.7079 35.3842 75.374 35.5316ZM85.0867 38.0093C84.4328 38.5826 83.9745 38.8682 83.7074 38.8682C83.613 38.8682 83.5278 38.8474 83.4472 38.8083C83.2077 38.6609 83.1479 38.3823 83.2676 37.9701C83.362 37.6362 83.8617 37.3438 84.7667 37.0905C84.7275 36.9293 84.5801 36.7704 84.3269 36.6092C84.1127 36.478 83.9745 36.3099 83.9078 36.1095C83.841 35.9115 83.8548 35.7112 83.9469 35.5108C84.0667 35.2322 84.2992 35.0319 84.6469 34.9121C84.9923 34.7924 85.4068 34.7993 85.8858 34.9306C85.9917 34.9582 86.07 35.0158 86.1161 35.101C86.1621 35.1885 86.169 35.2806 86.1345 35.3819C86.1022 35.4809 86.0424 35.5546 85.9549 35.6006C85.8697 35.6467 85.7729 35.6582 85.6647 35.6306C85.3723 35.5638 85.1374 35.5546 84.9555 35.6006C84.7759 35.6467 84.6607 35.725 84.6055 35.8309C84.594 35.8701 84.6331 35.923 84.7275 35.9898C85.1397 36.2569 85.393 36.5632 85.4851 36.9109C86.3118 36.7244 87.698 36.4711 89.6438 36.151C91.9879 35.7503 93.2728 35.4855 93.5008 35.352C93.632 35.1908 93.7863 35.1585 93.959 35.2506C94.0534 35.3036 94.1156 35.3773 94.1501 35.4717C94.1824 35.5638 94.1732 35.6582 94.1202 35.7503C94.0258 35.9368 93.7126 36.098 93.1807 36.2293C92.6465 36.3628 91.5089 36.577 89.7635 36.8694C87.6704 37.2171 86.2059 37.4888 85.3654 37.6892C85.2986 37.7951 85.2203 37.8964 85.1259 37.9885L85.0867 38.0093Z" fill="white"/>
<path d="M17.3439 5.82684V15.337H10.0121V5.82684H0C1.64412 7.39958 2.64579 9.43746 2.64579 11.655V30.8571H10.0121V20.2716H17.3439V30.8571H24.7447V5.82684H17.3439ZM44.5916 25.9593H37.7273V20.7736H43.8409C44.5916 18.8071 44.9508 17.8768 45.6647 15.9103H37.7273V10.7247H44.5916C47.0233 10.7247 48.4901 11.4408 49.7404 13.2277C50.6362 10.7615 51.5642 8.32987 52.4599 5.86138L27.6783 5.82684C29.3225 7.39958 30.3241 9.43746 30.3241 11.655V30.8571L52.4599 30.8225C52.4599 30.8225 50.6362 25.9224 49.7404 23.4562C48.4901 25.2431 47.0233 25.9593 44.5916 25.9593ZM80.3524 30.8571L77.5984 23.348C76.3457 25.1372 74.8812 25.851 72.4496 25.851H65.6198V5.82684H55.6054C57.2518 7.39958 58.2535 9.43746 58.2535 11.655V30.8571H80.3524ZM90.5787 5.82684H80.5666C82.2107 7.39958 83.2123 9.43746 83.2123 11.655V30.8571H90.5787V5.82684ZM106.958 31.2508C111.75 31.2508 117.935 29.5353 117.935 23.4194V13.2991C117.935 7.18543 111.75 5.46762 106.958 5.46762C102.166 5.46762 95.9439 7.18543 95.9439 13.2991V23.4194C95.9439 29.5353 102.166 31.2508 106.958 31.2508ZM106.958 25.8879C105.026 25.8879 103.345 24.778 103.345 22.8115V13.907C103.345 11.9405 105.026 10.8329 106.958 10.8329C108.887 10.8329 110.568 11.9405 110.568 13.907V22.8115C110.568 24.778 108.887 25.8879 106.958 25.8879Z" fill="white"/>
<path d="M44.5962 0H41.2665L38.5908 2.85303H41.0086L44.5962 0Z" fill="white"/>
</svg>
