<svg width="336" height="89" viewBox="0 0 336 89" fill="none" xmlns="http://www.w3.org/2000/svg">
<path d="M59.89 0.674316V39.3523H45.2007V24.848H18.4928V39.3523H3.80347V0.674316H18.4928V15.1785H45.2007V0.674316H59.89Z" fill="#020202"/>
<path d="M79.965 27.2764C80.679 31.0799 83.7927 32.9067 89.8504 32.9067C98.8831 32.9067 100.492 31.1063 102.164 30.1896L111.675 34.6409C106.884 38.8212 101.115 40.4298 89.8482 40.4298C73.8235 40.4298 65.0928 35.8727 65.0928 25.1301C65.0928 14.3852 73.7728 10.3482 89.7976 10.3482C105.822 10.3482 114.502 14.3874 114.502 25.1301C114.502 25.8771 114.463 26.5933 114.383 27.2786H79.965V27.2764ZM80.2493 21.904H99.3547C98.2947 18.8762 95.8112 17.8647 89.802 17.8647C83.7927 17.867 81.307 18.8762 80.2493 21.904ZM93.2132 6.96785H85.5159L91.2894 0H102.836L93.2132 6.96785Z" fill="#020202"/>
<path d="M119.178 39.3545V0.674316H133.868V39.3523H119.178V39.3545Z" fill="#020202"/>
<path d="M140.067 8.19527V0.674316H154.756V8.19527H140.067ZM140.067 39.3545V11.4192H154.756V39.3545H140.067Z" fill="#020202"/>
<path d="M209.046 25.3857C209.046 36.1305 200.366 40.4276 184.342 40.4276C168.317 40.4276 159.637 36.1305 159.637 25.3857C159.637 14.6408 168.317 10.3438 184.342 10.3438C200.366 10.346 209.046 14.643 209.046 25.3857ZM194.357 25.3857C194.357 20.0132 191.019 17.8647 184.342 17.8647C177.665 17.8647 174.326 20.0132 174.326 25.3857C174.326 30.7581 177.665 32.9066 184.342 32.9066C191.019 32.9066 194.357 30.7581 194.357 25.3857Z" fill="#020202"/>
<path d="M44.5682 83.1934H18.7131L16.0798 87.4905H0L23.5677 48.8103H39.6299L63.2219 87.4883H47.1751L44.5682 83.1934ZM31.5735 61.9858L24.5043 73.5217H38.57L31.5735 61.9858Z" fill="#020202"/>
<path d="M68.6582 87.4905V48.8103H83.3475V87.4883H68.6582V87.4905Z" fill="#020202"/>
<path d="M137.484 59.5549L120.038 87.4902H104.189L86.7433 59.5549H101.433L112.116 76.6594L122.799 59.5549H137.484Z" fill="#020202"/>
<path d="M152.372 75.4123C153.085 79.2158 156.197 81.0426 162.257 81.0426C171.29 81.0426 172.898 79.2422 174.571 78.3255L184.082 82.7768C179.291 86.9571 173.522 88.5658 162.255 88.5658C146.23 88.5658 137.499 84.0087 137.499 73.266C137.499 62.5212 146.179 58.4841 162.204 58.4841C178.229 58.4841 186.909 62.5234 186.909 73.266C186.909 74.013 186.869 74.7292 186.79 75.4146H152.372V75.4123ZM152.654 70.0399H171.759C170.699 67.0121 168.216 66.0007 162.206 66.0007C156.197 66.0007 153.714 67.0121 152.654 70.0399Z" fill="#020202"/>
<path d="M237.176 78.8941C237.176 86.415 232.502 88.5636 213.806 88.5636C195.111 88.5636 190.437 86.4393 190.437 78.8941H204.459C204.459 81.0426 207.129 81.0426 213.806 81.0426C220.483 81.0426 223.154 81.0426 223.154 79.1078C223.154 77.281 220.483 77.2656 211.136 77.2656C195.111 77.2656 191.094 74.5948 191.094 68.1492C191.094 61.7036 195.111 58.4797 213.804 58.4797C232.5 58.4797 236.506 61.5318 236.506 68.1492H223.152C223.152 66.0007 219.146 66.0007 213.804 66.0007C207.127 66.0007 204.456 66.0007 204.456 67.9355C204.456 69.705 207.127 69.7623 216.475 69.7623C232.502 69.7623 237.176 72.4485 237.176 78.8941Z" fill="#020202"/>
<path d="M269.747 60.2424L266.482 70.0419H263.216L261.31 64.3257L259.404 70.0419H256.138L252.872 60.2424H256.138L258.084 66.0798L260.029 60.2424H262.588L264.534 66.0798L266.479 60.2424H269.747Z" fill="#020202"/>
<path d="M283.533 67.5915V70.0419H273.463V60.2424H283.533V62.6929H276.457V63.9181H282.989V66.3685H276.457V67.5937H283.533V67.5915Z" fill="#020202"/>
<path d="M298.985 67.2169C298.985 68.7727 297.718 70.0397 296.162 70.0397H287.826V60.2424H295.618C297.174 60.2424 298.441 61.5095 298.441 63.0653C298.441 63.7638 298.185 64.4029 297.764 64.8965C298.5 65.4055 298.985 66.2561 298.985 67.2169ZM290.818 62.6907V64.0525H294.765C295.14 64.0525 295.446 63.7484 295.446 63.3716C295.446 62.997 295.142 62.6907 294.765 62.6907H290.818ZM295.99 66.9106C295.99 66.536 295.686 66.2297 295.309 66.2297H290.818V67.5915H295.309C295.684 67.5915 295.99 67.2852 295.99 66.9106Z" fill="#020202"/>
<path d="M253.641 86.8381V77.0386H259.357C263.255 77.0386 265.338 78.3277 265.338 81.9372C265.338 85.8046 263.255 86.8359 259.357 86.8359H253.641V86.8381ZM259.357 84.3876C261.173 84.3876 262.352 83.9998 262.352 81.9372C262.352 79.8746 261.206 79.4868 259.357 79.4868H256.636V84.3854H259.357V84.3876Z" fill="#020202"/>
<path d="M279.516 84.3876V86.8381H269.445V77.0386H279.516V79.489H272.44V80.7142H278.972V83.1646H272.44V84.3898H279.516V84.3876Z" fill="#020202"/>
<path d="M295.446 83.8434H295.439C295.439 86.5649 293.112 87.1092 289.459 87.1092C285.649 87.1092 283.472 86.5649 283.472 83.5701H286.466C286.466 84.6587 287.702 84.6587 289.461 84.6587C291.186 84.6587 292.427 84.6587 292.427 83.8412C292.427 82.8826 291.149 82.9465 289.426 82.887C289.424 82.887 289.421 82.887 289.419 82.887C289.417 82.887 289.415 82.887 289.413 82.887C285.761 82.7614 283.608 82.4794 283.608 79.8945C283.608 77.3097 285.799 76.7654 289.454 76.7654C293.264 76.7654 295.307 77.3097 295.307 80.3044H292.312C292.312 79.2158 291.224 79.2158 289.454 79.2158C287.729 79.2158 286.623 79.2158 286.623 79.8967C286.623 80.7253 287.771 80.6548 289.496 80.7143C289.498 80.7143 289.501 80.7143 289.503 80.7143C289.505 80.7143 289.507 80.7143 289.509 80.7143C293.159 80.8399 295.446 81.1219 295.446 83.8434Z" fill="#020202"/>
<path d="M299.624 86.8381V77.0386H302.619V86.8381H299.624Z" fill="#020202"/>
<path d="M319.256 81.6662V86.8381H317.079V86.4106C316.061 86.9241 314.697 87.1114 313.002 87.1114C309.186 87.1114 306.735 86.0228 306.735 81.9395C306.735 78.1294 308.912 76.7676 313.002 76.7676C316.55 76.7676 318.659 77.7989 319.146 80.5776H315.788C315.395 79.5199 314.443 79.2158 313.002 79.2158C311.089 79.2158 310.001 79.7601 310.001 81.9373C310.001 84.1145 311.089 84.6587 313.002 84.6587C314.137 84.6587 314.983 84.4648 315.479 83.8412H313.267V81.664H319.256V81.6662Z" fill="#020202"/>
<path d="M335.25 77.0386V86.8381H331.711L326.539 81.0205V86.8381H323.547V77.0386H326.812L332.255 83.1624V77.0386H335.25Z" fill="#020202"/>
</svg>
