<svg width="549" height="611" viewBox="0 0 549 611" fill="none" xmlns="http://www.w3.org/2000/svg">
<path style="mix-blend-mode:screen" d="M235.562 482.901L235.562 577L323.815 571.062L320.04 481.151C320.04 481.151 258.31 478.179 235.562 482.901Z" fill="url(#paint0_linear_52_334)"/>
<path fill-rule="evenodd" clip-rule="evenodd" d="M348.619 385.187L380.902 378.314C380.902 378.314 387.881 437.826 350.846 505.644L347.774 505.733L347.581 416.309L341.084 416.287L348.619 385.187Z" fill="url(#paint1_linear_52_334)"/>
<path fill-rule="evenodd" clip-rule="evenodd" d="M200.415 389.74L166.898 384.645C166.898 384.645 163.479 444.464 204.461 509.965L207.534 509.875L202.362 420.667L208.848 420.256L200.415 389.74Z" fill="url(#paint2_linear_52_334)"/>
<path fill-rule="evenodd" clip-rule="evenodd" d="M264.076 40.8198C222.057 42.0683 159.237 144.098 167.321 237.107C175.403 330.111 222.836 465.563 222.836 465.563L276.68 464.492L330.487 462.366C330.487 462.366 369.765 324.27 372.34 231.013C374.915 137.756 305.81 39.5795 264.076 40.8198Z" fill="url(#paint3_radial_52_334)"/>
<path fill-rule="evenodd" clip-rule="evenodd" d="M222.822 465.59C222.822 465.59 283.926 458.361 330.474 462.393C330.474 462.393 270.523 470.076 222.822 465.59Z" fill="#31165F"/>
<path fill-rule="evenodd" clip-rule="evenodd" d="M208.878 84.6476C208.878 84.6476 267.83 64.2324 325.178 86.052C325.178 86.052 294.566 40.1846 264.075 40.819C236.64 41.3881 208.878 84.6476 208.878 84.6476Z" fill="url(#paint4_radial_52_334)"/>
<path d="M324.902 86.7517C271.642 65.8917 209.803 85.1654 209.118 85.3612L208.655 83.9392C209.271 83.7298 271.689 64.2925 325.458 85.37L324.902 86.7517Z" fill="#53345F"/>
<path fill-rule="evenodd" clip-rule="evenodd" d="M250.027 44.5252L281.543 45.1587C281.543 45.1587 265.264 34.3798 250.027 44.5252Z" fill="#53345F"/>
<path fill-rule="evenodd" clip-rule="evenodd" d="M254.364 42.9073C260.192 41.8014 266.138 41.4688 272.054 41.9235C272.054 41.9235 268.152 27.231 262.74 26.8754C257.33 26.5232 254.364 42.9073 254.364 42.9073Z" fill="url(#paint5_linear_52_334)"/>
<path style="mix-blend-mode:multiply" opacity="0.5" fill-rule="evenodd" clip-rule="evenodd" d="M195.24 375.91C195.24 375.91 285.179 343.772 354.563 362.421C346.766 401.582 330.46 462.392 330.46 462.392C330.46 462.392 289.152 457.895 222.813 465.591C222.825 465.594 204.775 421.178 195.24 375.91Z" fill="url(#paint6_radial_52_334)"/>
<path style="mix-blend-mode:multiply" opacity="0.5" fill-rule="evenodd" clip-rule="evenodd" d="M262.559 108.245C224.778 112.289 199.059 157.763 198.487 196.779C197.912 235.791 234.647 258.535 273.05 256.312C311.453 254.088 342.565 227.013 336.834 184.476C331.713 146.026 304.548 103.747 262.559 108.245Z" fill="url(#paint7_radial_52_334)"/>
<path fill-rule="evenodd" clip-rule="evenodd" d="M262.375 102.038C224.594 106.083 198.874 151.556 198.3 190.568C197.728 229.584 234.463 252.328 272.866 250.119C311.268 247.906 342.38 220.817 336.649 178.269C331.529 139.833 304.364 97.5544 262.375 102.038Z" fill="#31165F"/>
<path fill-rule="evenodd" clip-rule="evenodd" d="M262.247 97.7108C224.467 101.755 198.747 147.229 198.173 186.241C197.598 225.254 234.335 248.001 272.737 245.788C311.14 243.58 342.252 216.49 336.522 173.942C331.399 135.503 304.237 93.2271 262.247 97.7108Z" fill="url(#paint8_radial_52_334)"/>
<path fill-rule="evenodd" clip-rule="evenodd" d="M265.176 111.539C231.264 114.601 215.266 150.202 214.806 180.713C214.346 211.223 243.215 228.908 273.389 227.172C303.562 225.436 327.962 204.3 323.523 171.093C319.502 140.975 300.596 108.278 265.176 111.539Z" fill="#A6345F"/>
<path fill-rule="evenodd" clip-rule="evenodd" d="M304.856 215.219C295.719 222.091 284.711 226.027 273.288 226.499C244.574 228.151 214.444 209.539 214.881 180.546C215.019 170.628 217.025 160.825 220.792 151.65C228.24 133.573 242.979 118.911 265.471 116.484C298.712 112.787 317.185 144.56 321.013 173.144C323.387 191.537 316.548 206.006 304.856 215.219Z" fill="url(#paint9_linear_52_334)"/>
<path d="M272.96 250.128L272.203 250.151L275.419 358.368L276.176 358.345L272.96 250.128Z" fill="#53345F"/>
<path d="M195.357 376.207L195.122 375.496C298.139 342.656 354.096 361.823 354.644 362.012L354.394 362.722C353.835 362.577 298.097 343.523 195.357 376.207Z" fill="#53345F"/>
<path d="M186.13 340.419L185.695 339.809C185.999 339.585 217.533 318.02 274.431 313.282L274.452 314.024C217.768 318.687 186.437 340.208 186.13 340.419Z" fill="#53345F"/>
<path fill-rule="evenodd" clip-rule="evenodd" d="M290.634 435.828L287.732 389.175L300.552 385.561L300.763 435.525L290.634 435.828Z" fill="#31165F"/>
<path fill-rule="evenodd" clip-rule="evenodd" d="M231.75 466.273C231.75 466.273 278.371 460.435 324.31 463.105L322.104 484.108L234.808 484.403L231.75 466.273Z" fill="url(#paint10_radial_52_334)"/>
<path opacity="0.5" fill-rule="evenodd" clip-rule="evenodd" d="M233.323 475.431C244.632 469.589 257.152 466.469 269.883 466.319C290.885 466.129 322.65 479.246 322.65 479.246L324.31 463.105C324.31 463.105 274.223 459.772 231.75 466.273L233.323 475.431Z" fill="#31165F"/>
<path d="M286.624 128.699C292.926 134.563 298.223 141.42 302.307 148.998L309.485 144.601C309.485 144.601 303.489 131.419 292.882 127.024L286.624 128.699Z" fill="white"/>
<path d="M225.674 189.757L232.017 200.085L226.09 203.78L221.488 195.133L225.674 189.757Z" fill="white"/>
<path style="mix-blend-mode:multiply" opacity="0.5" fill-rule="evenodd" clip-rule="evenodd" d="M197.27 103.919C197.27 103.919 255.872 71.7891 334.33 99.7246L325.179 86.0525C325.179 86.0525 279.8 66.6394 208.878 84.6483L197.27 103.919Z" fill="url(#paint11_radial_52_334)"/>
<path fill-rule="evenodd" clip-rule="evenodd" d="M271.905 320.748C271.917 321.188 271.841 321.626 271.682 322.035C271.524 322.447 271.287 322.823 270.982 323.14C270.678 323.457 270.315 323.714 269.913 323.893C269.509 324.068 269.077 324.167 268.635 324.173C267.748 324.203 266.887 323.883 266.236 323.276C265.587 322.672 265.205 321.836 265.169 320.946C265.151 320.061 265.484 319.202 266.097 318.561C266.708 317.916 267.552 317.545 268.439 317.521C268.879 317.505 269.316 317.574 269.73 317.729C270.142 317.881 270.52 318.115 270.843 318.416C271.163 318.713 271.423 319.074 271.606 319.474C271.788 319.875 271.89 320.308 271.905 320.748Z" fill="url(#paint12_linear_52_334)"/>
<path fill-rule="evenodd" clip-rule="evenodd" d="M271.228 320.768C271.229 321.473 270.954 322.148 270.465 322.654C269.973 323.157 269.305 323.451 268.602 323.472C267.898 323.494 267.215 323.241 266.695 322.766C266.174 322.289 265.861 321.632 265.82 320.93C265.819 320.225 266.094 319.55 266.584 319.044C267.075 318.541 267.744 318.248 268.447 318.226C269.15 318.205 269.833 318.457 270.353 318.932C270.872 319.406 271.187 320.066 271.228 320.768Z" fill="url(#paint13_radial_52_334)"/>
<path fill-rule="evenodd" clip-rule="evenodd" d="M271.417 304.317C271.428 305.201 271.092 306.058 270.477 306.695C269.86 307.329 269.019 307.698 268.134 307.717C267.245 307.743 266.383 307.418 265.733 306.81C265.085 306.206 264.702 305.366 264.667 304.476C264.66 303.599 264.997 302.747 265.609 302.116C266.22 301.481 267.057 301.114 267.938 301.093C268.378 301.072 268.817 301.14 269.233 301.294C269.646 301.446 270.026 301.679 270.349 301.979C270.672 302.279 270.933 302.639 271.116 303.04C271.301 303.444 271.403 303.877 271.417 304.317Z" fill="url(#paint14_linear_52_334)"/>
<path fill-rule="evenodd" clip-rule="evenodd" d="M270.742 304.338C270.743 305.044 270.467 305.718 269.976 306.221C269.487 306.728 268.818 307.021 268.115 307.042C267.412 307.064 266.728 306.811 266.207 306.333C265.688 305.859 265.375 305.202 265.332 304.497C265.323 304.147 265.385 303.799 265.513 303.473C265.64 303.146 265.833 302.85 266.079 302.6C266.323 302.348 266.616 302.149 266.938 302.012C267.262 301.878 267.61 301.809 267.959 301.807C268.308 301.785 268.66 301.836 268.99 301.952C269.321 302.068 269.626 302.252 269.885 302.487C270.144 302.722 270.354 303.009 270.5 303.324C270.647 303.643 270.731 303.989 270.742 304.338Z" fill="url(#paint15_radial_52_334)"/>
<path d="M209.362 197.456C211.221 197.4 212.684 195.865 212.631 194.031C212.576 192.193 211.024 190.748 209.165 190.804C207.303 190.856 205.841 192.392 205.895 194.23C205.95 196.067 207.503 197.512 209.362 197.456Z" fill="#31165F"/>
<path fill-rule="evenodd" clip-rule="evenodd" d="M211.967 194.035C211.967 194.74 211.692 195.415 211.203 195.922C210.711 196.424 210.043 196.717 209.34 196.739C208.637 196.76 207.953 196.508 207.434 196.033C206.913 195.556 206.6 194.899 206.558 194.197C206.561 193.495 206.836 192.82 207.326 192.318C207.816 191.816 208.482 191.524 209.184 191.504C209.535 191.486 209.885 191.532 210.215 191.648C210.545 191.764 210.851 191.948 211.109 192.183C211.368 192.418 211.579 192.706 211.724 193.021C211.872 193.34 211.955 193.686 211.967 194.035Z" fill="url(#paint16_radial_52_334)"/>
<path fill-rule="evenodd" clip-rule="evenodd" d="M217.139 146.721C217.159 147.61 216.826 148.469 216.213 149.11C215.602 149.755 214.758 150.126 213.872 150.151C213.431 150.166 212.991 150.094 212.578 149.943C212.166 149.792 211.787 149.558 211.463 149.258C211.14 148.958 210.879 148.597 210.695 148.197C210.512 147.797 210.409 147.365 210.391 146.922C210.383 146.484 210.46 146.045 210.618 145.632C210.779 145.223 211.017 144.847 211.323 144.53C211.628 144.212 211.993 143.958 212.395 143.779C212.798 143.6 213.233 143.505 213.675 143.498C214.562 143.468 215.423 143.788 216.072 144.392C216.723 144.999 217.106 145.835 217.139 146.721Z" fill="#31165F"/>
<path fill-rule="evenodd" clip-rule="evenodd" d="M216.423 146.745C216.422 147.446 216.149 148.125 215.657 148.628C215.168 149.134 214.5 149.428 213.796 149.449C213.093 149.47 212.407 149.214 211.888 148.74C211.369 148.266 211.054 147.605 211.013 146.904C211.014 146.202 211.287 145.524 211.779 145.021C212.268 144.514 212.936 144.221 213.639 144.2C214.343 144.178 215.028 144.435 215.548 144.909C216.067 145.383 216.38 146.04 216.423 146.745Z" fill="url(#paint17_radial_52_334)"/>
<path fill-rule="evenodd" clip-rule="evenodd" d="M245.26 230.297C245.272 230.738 245.195 231.172 245.037 231.584C244.879 231.997 244.64 232.369 244.337 232.689C244.033 233.006 243.671 233.264 243.267 233.439C242.865 233.618 242.43 233.713 241.991 233.723C241.104 233.753 240.24 233.429 239.591 232.825C238.942 232.221 238.558 231.382 238.524 230.496C238.506 229.611 238.839 228.752 239.45 228.107C240.064 227.465 240.905 227.091 241.794 227.07C242.234 227.055 242.672 227.123 243.083 227.275C243.497 227.431 243.876 227.665 244.196 227.962C244.519 228.262 244.779 228.623 244.961 229.024C245.144 229.425 245.246 229.858 245.26 230.297Z" fill="#31165F"/>
<path fill-rule="evenodd" clip-rule="evenodd" d="M244.543 230.317C244.543 231.023 244.268 231.697 243.779 232.204C243.287 232.707 242.619 233 241.916 233.021C241.212 233.043 240.529 232.79 240.01 232.316C239.488 231.838 239.175 231.181 239.134 230.48C239.134 229.774 239.408 229.1 239.898 228.593C240.389 228.09 241.056 227.793 241.761 227.775C242.464 227.754 243.148 228.007 243.667 228.481C244.186 228.956 244.501 229.615 244.543 230.317Z" fill="url(#paint18_radial_52_334)"/>
<path fill-rule="evenodd" clip-rule="evenodd" d="M297.554 232.75C297.566 233.191 297.49 233.629 297.333 234.041C297.173 234.45 296.935 234.826 296.632 235.146C296.33 235.467 295.965 235.721 295.563 235.9C295.16 236.079 294.726 236.179 294.286 236.19C293.397 236.216 292.535 235.891 291.885 235.283C291.235 234.675 290.853 233.839 290.819 232.949C290.801 232.063 291.134 231.204 291.745 230.559C292.358 229.918 293.2 229.544 294.088 229.523C294.528 229.507 294.966 229.576 295.38 229.731C295.791 229.883 296.17 230.117 296.492 230.418C296.813 230.715 297.073 231.076 297.255 231.477C297.438 231.877 297.54 232.311 297.554 232.75Z" fill="#31165F"/>
<path fill-rule="evenodd" clip-rule="evenodd" d="M296.837 232.77C296.838 233.476 296.563 234.15 296.071 234.653C295.581 235.16 294.913 235.453 294.21 235.474C293.507 235.496 292.823 235.243 292.302 234.765C291.783 234.291 291.47 233.635 291.426 232.929C291.418 232.579 291.48 232.232 291.608 231.905C291.738 231.581 291.928 231.282 292.174 231.032C292.418 230.78 292.711 230.582 293.033 230.444C293.357 230.31 293.705 230.241 294.054 230.239C294.405 230.221 294.755 230.268 295.085 230.384C295.415 230.5 295.721 230.684 295.979 230.919C296.238 231.154 296.449 231.441 296.595 231.756C296.742 232.075 296.826 232.421 296.837 232.77Z" fill="url(#paint19_radial_52_334)"/>
<path d="M328.686 204.062C330.545 204.005 332.01 202.474 331.955 200.636C331.9 198.798 330.348 197.353 328.489 197.409C326.63 197.465 325.165 198.997 325.22 200.835C325.274 202.672 326.827 204.118 328.686 204.062Z" fill="#31165F"/>
<path fill-rule="evenodd" clip-rule="evenodd" d="M331.277 200.652C331.277 201.357 331.002 202.032 330.513 202.539C330.021 203.042 329.355 203.338 328.65 203.356C327.947 203.378 327.263 203.125 326.744 202.651C326.225 202.176 325.91 201.516 325.868 200.815C325.868 200.109 326.143 199.434 326.634 198.931C327.123 198.425 327.792 198.132 328.495 198.11C329.198 198.089 329.882 198.342 330.401 198.816C330.922 199.294 331.235 199.951 331.277 200.652Z" fill="url(#paint20_radial_52_334)"/>
<path fill-rule="evenodd" clip-rule="evenodd" d="M324.791 141.79C324.803 142.232 324.728 142.669 324.57 143.082C324.411 143.49 324.173 143.866 323.869 144.183C323.566 144.503 323.202 144.757 322.8 144.936C322.398 145.114 321.964 145.21 321.524 145.22C320.637 145.25 319.773 144.926 319.124 144.322C318.473 143.715 318.091 142.879 318.058 141.993C318.039 141.108 318.37 140.25 318.978 139.607C319.589 138.967 320.427 138.591 321.312 138.566C321.752 138.546 322.194 138.617 322.607 138.768C323.022 138.922 323.4 139.152 323.723 139.452C324.047 139.752 324.308 140.113 324.492 140.517C324.675 140.918 324.777 141.351 324.791 141.79Z" fill="#31165F"/>
<path fill-rule="evenodd" clip-rule="evenodd" d="M324.115 141.811C324.116 142.517 323.841 143.191 323.351 143.698C322.86 144.201 322.194 144.497 321.488 144.515C320.785 144.537 320.102 144.284 319.582 143.81C319.063 143.336 318.748 142.675 318.707 141.974C318.706 141.268 318.981 140.593 319.471 140.087C319.962 139.584 320.631 139.291 321.333 139.27C322.037 139.248 322.72 139.501 323.24 139.975C323.761 140.453 324.074 141.11 324.115 141.811Z" fill="url(#paint21_radial_52_334)"/>
<path fill-rule="evenodd" clip-rule="evenodd" d="M297.341 112.153C297.351 112.59 297.275 113.028 297.118 113.44C296.958 113.848 296.72 114.224 296.418 114.545C296.113 114.862 295.749 115.116 295.347 115.295C294.945 115.473 294.511 115.568 294.071 115.578C293.184 115.609 292.321 115.284 291.672 114.681C291.023 114.077 290.638 113.238 290.605 112.352C290.585 111.463 290.918 110.603 291.531 109.962C292.144 109.321 292.986 108.947 293.874 108.926C294.312 108.906 294.752 108.979 295.164 109.131C295.577 109.286 295.954 109.516 296.276 109.817C296.599 110.118 296.859 110.479 297.042 110.88C297.224 111.281 297.324 111.71 297.341 112.153Z" fill="#31165F"/>
<path fill-rule="evenodd" clip-rule="evenodd" d="M296.623 112.173C296.624 112.878 296.349 113.553 295.86 114.059C295.368 114.562 294.7 114.855 293.997 114.877C293.294 114.898 292.61 114.646 292.091 114.171C291.572 113.697 291.256 113.037 291.215 112.335C291.214 111.63 291.489 110.955 291.979 110.448C292.47 109.946 293.139 109.653 293.842 109.631C294.545 109.61 295.228 109.862 295.748 110.336C296.269 110.814 296.582 111.471 296.623 112.173Z" fill="url(#paint22_radial_52_334)"/>
<path fill-rule="evenodd" clip-rule="evenodd" d="M252.502 108.72C252.523 109.609 252.187 110.464 251.576 111.109C250.963 111.75 250.121 112.125 249.233 112.146C248.795 112.165 248.355 112.093 247.944 111.941C247.53 111.785 247.154 111.555 246.831 111.254C246.509 110.954 246.249 110.593 246.066 110.192C245.883 109.791 245.782 109.358 245.767 108.919C245.757 108.481 245.831 108.04 245.991 107.631C246.148 107.219 246.386 106.843 246.689 106.522C246.993 106.205 247.356 105.947 247.759 105.768C248.162 105.589 248.595 105.49 249.035 105.479C249.924 105.453 250.786 105.777 251.436 106.385C252.086 106.994 252.47 107.833 252.502 108.72Z" fill="#31165F"/>
<path fill-rule="evenodd" clip-rule="evenodd" d="M251.786 108.74C251.794 109.091 251.734 109.442 251.606 109.769C251.477 110.092 251.286 110.392 251.04 110.641C250.796 110.894 250.503 111.092 250.179 111.226C249.857 111.363 249.509 111.432 249.158 111.43C248.809 111.452 248.459 111.405 248.129 111.289C247.797 111.17 247.493 110.989 247.234 110.754C246.976 110.519 246.765 110.232 246.617 109.913C246.472 109.598 246.388 109.252 246.377 108.903C246.377 108.198 246.651 107.523 247.141 107.016C247.633 106.513 248.301 106.22 249.004 106.199C249.707 106.177 250.391 106.43 250.91 106.904C251.431 107.382 251.744 108.039 251.786 108.74Z" fill="url(#paint23_radial_52_334)"/>
<path fill-rule="evenodd" clip-rule="evenodd" d="M207.479 509.872L209.955 509.801L204.821 420.44L202.363 420.608L207.479 509.872Z" fill="#6F2561"/>
<path fill-rule="evenodd" clip-rule="evenodd" d="M347.621 416.295L345.156 416.272L346.136 505.753L347.814 505.705L347.621 416.295Z" fill="#6F2561"/>
<path fill-rule="evenodd" clip-rule="evenodd" d="M297.284 366.72L306.156 366.456L301.456 507.084L295.274 507.269L297.284 366.72Z" fill="url(#paint24_linear_52_334)"/>
<path fill-rule="evenodd" clip-rule="evenodd" d="M297.284 366.72L292.028 397.969L295.274 507.27L297.284 366.72Z" fill="#FF4C61"/>
<path opacity="0.5" fill-rule="evenodd" clip-rule="evenodd" d="M306.013 370.779L330.474 462.393L308.991 461.867L309.381 484.161L302.215 484.375L306.013 370.779Z" fill="#31165F"/>
<path d="M191.305 130.924C191.305 130.924 190.138 121.292 196.156 115.16L201.207 115.252C199.03 120.578 196.574 125.784 193.847 130.848L191.305 130.924Z" fill="white"/>
<g style="mix-blend-mode:soft-light">
<path d="M353.816 338.726L361.854 296.704L364.436 296.625L356.873 338.636L353.816 338.726Z" fill="white"/>
</g>
<path fill-rule="evenodd" clip-rule="evenodd" d="M359.017 151.603C359.017 151.603 374.597 147.933 363.708 166.448L359.017 151.603Z" fill="url(#paint25_linear_52_334)"/>
<path fill-rule="evenodd" clip-rule="evenodd" d="M176.423 154.942C176.423 154.942 162.013 159.635 172.645 169.43L176.423 154.942Z" fill="url(#paint26_linear_52_334)"/>
<g style="mix-blend-mode:soft-light" opacity="0.5">
<path fill-rule="evenodd" clip-rule="evenodd" d="M237.978 463.612C237.978 463.612 193.842 341.138 175.263 249.297L171.37 251.345C171.37 251.345 194.596 392.468 224.97 465.339L237.978 463.612Z" fill="white"/>
</g>
<g style="mix-blend-mode:soft-light">
<path fill-rule="evenodd" clip-rule="evenodd" d="M362.993 287.182L366.893 261.306L369.354 261.234L365.454 287.109L362.993 287.182Z" fill="white"/>
</g>
<g style="mix-blend-mode:soft-light">
<path fill-rule="evenodd" clip-rule="evenodd" d="M200.987 333.809C200.987 333.809 227.468 321.178 252.941 317.984C252.941 317.984 227.656 324.365 200.987 333.809Z" fill="white"/>
</g>
<g style="mix-blend-mode:soft-light">
<path fill-rule="evenodd" clip-rule="evenodd" d="M274.125 260.164L277.58 355.003C277.58 355.003 278.236 320.563 274.125 260.164Z" fill="white"/>
</g>
<g style="mix-blend-mode:soft-light">
<path fill-rule="evenodd" clip-rule="evenodd" d="M214.529 371.413C214.529 371.413 277.88 350.96 339.482 361.026C339.483 361.094 293.796 351.366 214.529 371.413Z" fill="white"/>
</g>
<path fill-rule="evenodd" clip-rule="evenodd" d="M221.398 121.909C221.398 121.909 230.21 125.111 234.832 108.895C229.84 112.668 225.329 117.039 221.398 121.909Z" fill="white"/>
<g style="mix-blend-mode:soft-light">
<path fill-rule="evenodd" clip-rule="evenodd" d="M280.351 245.092C280.351 245.092 301.227 243.388 325.308 220.241C325.306 220.174 311.066 241.052 280.351 245.092Z" fill="white"/>
</g>
<g style="mix-blend-mode:soft-light">
<path fill-rule="evenodd" clip-rule="evenodd" d="M271.9 227.15C271.9 227.15 290.445 236.304 302.399 218.124C302.399 218.162 292.957 227.012 271.9 227.15Z" fill="white"/>
</g>
<g style="mix-blend-mode:soft-light" opacity="0.36">
<g style="mix-blend-mode:soft-light" opacity="0.36">
<path fill-rule="evenodd" clip-rule="evenodd" d="M269.549 267.879C268.489 268.642 266.438 269.719 266.837 271.343C267.103 272.061 267.409 272.761 267.753 273.443C267.975 274.084 268.129 274.744 268.218 275.419C268.362 276.523 268.819 277.559 269.537 278.41C270.055 278.924 270.566 278.381 270.874 277.843C271.274 277.31 271.527 276.682 271.606 276.023C271.59 275.161 271.664 274.3 271.827 273.457C271.898 273.128 272.147 272.824 272.218 272.471C272.254 272.018 272.242 271.567 272.177 271.117C272.136 270.372 271.859 269.655 271.389 269.075C270.916 268.492 270.273 268.074 269.549 267.879Z" fill="white"/>
</g>
<g style="mix-blend-mode:soft-light" opacity="0.36">
<path fill-rule="evenodd" clip-rule="evenodd" d="M265.545 281.591C265.465 281.404 265.442 281.198 265.48 281.001C265.516 280.8 265.613 280.617 265.755 280.472C267.378 280.426 268.042 283.601 266.544 284.252C264.807 285.021 264.521 282.65 265.03 281.591L265.545 281.591Z" fill="white"/>
</g>
<g style="mix-blend-mode:soft-light" opacity="0.36">
<path fill-rule="evenodd" clip-rule="evenodd" d="M236.352 302.705C237.18 302.277 237.866 301.7 238.805 301.888C239.58 302.054 240.281 302.467 240.803 303.061C241.409 303.816 241.848 304.698 242.085 305.637C242.304 306.05 242.397 306.517 242.354 306.98C241.91 308.877 239.746 310.268 238.071 310.86C237.122 311.252 236.132 311.537 235.118 311.703C234.402 311.727 233.69 311.91 232.989 312.051C232.429 312.253 231.832 312.335 231.238 312.293C230.742 312.122 230.28 311.878 229.863 311.564C229.282 311.183 228.806 310.67 228.472 310.064C228.138 309.459 227.957 308.779 227.944 308.086C227.966 305.634 230.871 303.587 232.855 302.525C234.469 301.68 237.062 300.587 236.352 302.705Z" fill="white"/>
</g>
<g style="mix-blend-mode:soft-light" opacity="0.36">
<path fill-rule="evenodd" clip-rule="evenodd" d="M244.016 299.148C243.808 299.847 243.61 300.068 244.192 300.497C244.413 300.612 244.655 300.677 244.904 300.689C245.15 300.698 245.399 300.657 245.629 300.563C246.486 300.253 247.543 298.923 246.908 298.062C246.571 297.639 245.777 296.865 245.231 296.757C244.64 296.836 244.093 297.117 243.69 297.559C243.288 298.001 243.053 298.569 243.03 299.167L244.016 299.148Z" fill="white"/>
</g>
<g style="mix-blend-mode:soft-light" opacity="0.36">
<path fill-rule="evenodd" clip-rule="evenodd" d="M277.13 322.122C277.031 322.491 276.995 322.872 277.03 323.251C277.058 324.198 277.085 325.142 277.114 326.104C277.167 327.889 276.949 329.694 277.005 331.521C277.075 332.824 277.254 334.118 277.539 335.39C277.656 336.057 277.806 336.715 277.991 337.368C278.138 337.361 278.155 336.996 278.219 336.847C278.434 336.338 278.552 335.779 278.795 335.298C279.359 334.213 279.919 333.071 280.4 331.946C280.458 331.723 280.543 331.508 280.652 331.304C280.822 331.07 281.073 330.847 281.256 330.625C281.608 330.212 281.891 329.747 282.094 329.245C282.467 328.051 282.574 326.792 282.403 325.552C282.392 325.135 282.258 324.745 282.233 324.341C282.221 323.89 282.179 323.437 282.111 322.99C281.899 322.061 281.503 321.179 280.95 320.398C280.368 319.469 279.683 317.824 278.432 317.593C277.831 317.472 277.622 318.143 277.542 318.633C277.462 319.122 277.471 319.867 277.393 320.49C277.319 321.118 277.057 322.344 277.13 322.122Z" fill="white"/>
</g>
<g style="mix-blend-mode:soft-light" opacity="0.36">
<path fill-rule="evenodd" clip-rule="evenodd" d="M278.177 313.631C278.434 313.176 278.773 312.26 279.497 312.456C280.22 312.652 280.218 313.529 280.167 314.06C280.015 315.311 278.369 314.115 278.451 313.245L278.177 313.631Z" fill="white"/>
</g>
<g style="mix-blend-mode:soft-light" opacity="0.36">
<path fill-rule="evenodd" clip-rule="evenodd" d="M290.717 321.083C290.456 321.526 290.351 322.044 290.422 322.553C290.492 322.892 290.692 323.195 290.976 323.391C291.262 323.591 291.613 323.671 291.957 323.619C293.106 323.583 293.897 323.316 294.093 322.2C294.106 321.774 294.029 321.351 293.865 320.955C293.702 320.562 293.457 320.207 293.146 319.914C292.874 319.696 292.538 319.574 292.187 319.562C291.484 319.583 291.161 320.081 290.866 320.631L290.717 321.083Z" fill="white"/>
</g>
<g style="mix-blend-mode:soft-light" opacity="0.36">
<path fill-rule="evenodd" clip-rule="evenodd" d="M317.691 356.044C319.384 355.134 321.182 354.432 323.042 353.947C324.697 353.693 326.363 353.529 328.037 353.463C330.313 353.04 332.556 352.455 334.752 351.718C336.684 351.08 338.743 350.923 340.748 351.27C341.563 351.422 342.339 351.738 343.027 352.198C343.717 352.661 344.303 353.257 344.753 353.952C345.22 354.841 345.534 355.804 345.678 356.796C345.692 357.27 345.8 357.699 345.866 358.143C345.95 358.411 346.003 358.687 346.027 358.966C346.04 359.411 345.851 359.418 345.43 359.427C344.697 359.499 343.96 359.341 343.319 358.976C342.17 358.418 340.932 358.066 339.66 357.934C338.437 357.754 337.266 357.505 336.03 357.406L332.42 357.066C331.389 356.951 330.355 356.803 329.31 356.7C328.264 356.594 327.249 356.61 326.221 356.576C325.19 356.538 324.516 356.625 323.664 356.65C323.123 356.665 322.607 356.588 322.066 356.604C321.648 356.616 321.232 356.599 320.818 356.545C320.418 356.538 320.016 356.551 319.616 356.582C318.954 356.473 318.31 356.294 317.691 356.044Z" fill="white"/>
</g>
<g style="mix-blend-mode:soft-light" opacity="0.36">
<path fill-rule="evenodd" clip-rule="evenodd" d="M328.478 348.292C328.227 348.515 327.881 348.715 327.823 349.04C327.802 349.218 327.807 349.395 327.838 349.567C328.036 350.319 329.322 350.321 329.944 350.303C331.766 350.317 333.526 349.642 334.87 348.413C335.324 347.986 335.672 347.458 335.89 346.875C336.107 346.292 336.188 345.666 336.124 345.046C335.737 343.458 333.98 342.618 332.483 342.324C330.985 342.03 329.118 342.047 328.068 343.159C327.681 343.524 327.43 344.009 327.35 344.533C327.383 344.957 327.439 345.372 327.522 345.786C327.54 346.356 327.257 346.85 327.572 347.399C327.771 347.785 328.088 348.098 328.478 348.292Z" fill="white"/>
</g>
<g style="mix-blend-mode:soft-light" opacity="0.36">
<path fill-rule="evenodd" clip-rule="evenodd" d="M338.854 348.104C338.787 347.953 338.771 347.787 338.805 347.626C338.837 347.462 338.921 347.315 339.044 347.206C339.132 347.043 339.272 346.914 339.441 346.84C339.611 346.766 339.801 346.754 339.979 346.797C340.138 346.832 340.289 346.901 340.419 346.996C340.551 347.095 340.659 347.218 340.738 347.362C340.818 347.506 340.865 347.664 340.877 347.827C340.888 347.986 340.865 348.15 340.809 348.304C340.697 348.5 340.537 348.666 340.345 348.786C340.153 348.907 339.933 348.975 339.705 348.985C339.463 349.003 339.223 348.942 339.022 348.805C338.821 348.668 338.673 348.467 338.602 348.235L338.854 348.104Z" fill="white"/>
</g>
<g style="mix-blend-mode:soft-light" opacity="0.36">
<path fill-rule="evenodd" clip-rule="evenodd" d="M351.099 310.572C350.533 310.752 350.058 311.143 349.779 311.669C349.677 311.792 349.615 311.944 349.597 312.101C349.581 312.261 349.612 312.423 349.682 312.563C350.232 313.492 351.091 314.188 352.11 314.535C352.454 314.638 352.816 314.672 353.172 314.632C353.53 314.596 353.874 314.485 354.189 314.313C354.695 313.918 355.138 313.448 355.5 312.918C355.854 312.49 356.165 312.047 356.475 311.537C356.797 311.205 357.004 310.779 357.067 310.324C357.128 309.865 357.041 309.399 356.819 308.997C356.525 308.587 356.136 308.257 355.686 308.035C355.236 307.813 354.739 307.706 354.236 307.718C353.558 307.803 352.911 308.05 352.349 308.438C351.752 308.836 351.19 309.068 351.099 310.572Z" fill="white"/>
</g>
<g style="mix-blend-mode:soft-light" opacity="0.36">
<path fill-rule="evenodd" clip-rule="evenodd" d="M347.711 314.518C348.229 314.54 348.739 314.665 349.211 314.879C349.217 315.109 349.504 315.221 349.405 315.497C349.304 315.769 348.628 315.79 348.331 315.786C347.939 315.784 347.563 315.636 347.275 315.368C347.178 315.264 346.732 314.844 347.068 314.792L347.711 314.518Z" fill="white"/>
</g>
<g style="mix-blend-mode:soft-light" opacity="0.36">
<path fill-rule="evenodd" clip-rule="evenodd" d="M301.822 345.875C301.515 346.466 301.17 347.127 301.771 347.759C302.082 347.988 302.458 348.122 302.845 348.137C303.234 348.155 303.618 348.055 303.951 347.854C304.299 347.696 304.685 347.507 304.727 347.113C304.772 346.723 304.704 346.29 304.691 345.883C304.664 344.925 305.643 344.204 304.737 343.311C304.511 343.105 304.245 342.952 303.955 342.861C303.665 342.771 303.357 342.739 303.056 342.777C302.075 342.998 301.606 344.028 301.291 344.862L301.822 345.875Z" fill="white"/>
</g>
<g style="mix-blend-mode:soft-light" opacity="0.36">
<path fill-rule="evenodd" clip-rule="evenodd" d="M224.371 383.678C223.279 383.953 222.292 384.528 221.511 385.335L221.521 385.757C221.371 386.112 221.301 386.497 221.311 386.886C221.325 387.272 221.418 387.652 221.59 388.001C222.802 390.143 225.093 389.819 227.19 389.742C229.284 389.667 232.298 389.836 231.165 386.795C230.65 385.457 229.929 383.137 228.593 382.297C227.878 381.844 227.53 382.084 226.864 382.346C225.896 382.618 224.99 383.073 224.196 383.687L224.371 383.678Z" fill="white"/>
</g>
<g style="mix-blend-mode:soft-light" opacity="0.36">
<path fill-rule="evenodd" clip-rule="evenodd" d="M250.169 386.368C250.503 385.761 250.968 384.582 251.844 384.461C252.72 384.34 252.815 384.772 253.339 385.121C254.498 385.884 255.613 386.91 254.533 388.376C254.218 388.723 253.827 388.993 253.391 389.166C252.956 389.34 252.484 389.407 252.017 389.37C251.269 389.257 249.985 388.402 250.204 387.531L250.169 386.368Z" fill="white"/>
</g>
<g style="mix-blend-mode:soft-light" opacity="0.36">
<path fill-rule="evenodd" clip-rule="evenodd" d="M351.645 189.559C350.869 191.273 350.804 191.369 351.33 193.061C351.582 194.405 352.163 195.666 353.022 196.733C354.415 198.046 356.094 197.642 357.727 197.945C358.246 198.127 358.805 198.17 359.347 198.071C359.888 197.968 360.392 197.725 360.81 197.367C361.905 196.424 362.815 195.285 363.5 194.013C364.461 191.93 364.953 189.66 364.941 187.364C364.93 185.073 364.412 182.806 363.429 180.736C362.205 178.215 360.399 175.329 357.439 174.604C356.207 174.269 354.908 174.274 353.677 174.615C352.445 174.956 351.33 175.624 350.447 176.548C349.648 177.535 349.098 178.699 348.842 179.942C348.587 181.185 348.634 182.472 348.979 183.694L349.518 185.413C349.614 186.161 349.637 186.917 349.585 187.672C349.73 188.464 350.213 189.169 351.645 189.559Z" fill="white"/>
</g>
<g style="mix-blend-mode:soft-light" opacity="0.36">
<path fill-rule="evenodd" clip-rule="evenodd" d="M347.173 196.23C348.85 197.536 348.556 197.257 348.889 198.886C349.019 199.599 349.322 199.741 349.18 200.422C349.014 200.888 348.711 201.291 348.312 201.585C347.914 201.878 347.435 202.042 346.939 202.056C346.251 202.079 345.142 200.757 344.856 200.251C344.665 199.947 344.567 199.594 344.576 199.234C344.586 198.878 344.7 198.53 344.904 198.232L347.173 196.23Z" fill="white"/>
</g>
<g style="mix-blend-mode:soft-light" opacity="0.36">
<path fill-rule="evenodd" clip-rule="evenodd" d="M183.51 200.713C183.213 202.077 182.791 203.796 184.388 204.748C185.476 205.366 187.092 204.667 188.006 203.925C189.487 202.506 190.474 200.65 190.825 198.627C191.016 196.837 188.797 195.008 187.141 194.854C183.76 194.547 182.133 199.863 181.949 202.345L183.51 200.713Z" fill="white"/>
</g>
<g style="mix-blend-mode:soft-light" opacity="0.36">
<path fill-rule="evenodd" clip-rule="evenodd" d="M181.642 216.148C181.439 215.758 180.595 214.649 180.715 214.156C180.708 213.927 181.046 213.877 181.147 213.683C181.306 213.348 181.532 213.047 181.815 212.806C182.098 212.565 182.428 212.384 182.784 212.28C183.521 212.093 184.298 212.151 184.997 212.448C185.696 212.746 186.278 213.266 186.652 213.927C186.958 214.32 187.112 214.815 187.082 215.314C187.052 215.813 186.839 216.282 186.489 216.64C186.018 217.116 185.387 217.402 184.719 217.443C184.05 217.483 183.389 217.271 182.866 216.853L181.642 216.148Z" fill="white"/>
</g>
<g style="mix-blend-mode:soft-light" opacity="0.36">
<path fill-rule="evenodd" clip-rule="evenodd" d="M335.822 389.981C334.908 392.398 334.811 395.048 335.544 397.526C335.919 399.155 336.212 401.298 338.006 401.976C342.208 403.556 345.138 394.645 345.824 391.806C346.435 389.34 346.52 386.774 346.075 384.276C345.76 382.808 344.51 379.908 343.028 379.196C341.119 378.278 338.975 379.53 337.938 381.024C335.333 384.485 336.207 388.819 335.091 392.696L335.822 389.981Z" fill="white"/>
</g>
<g style="mix-blend-mode:soft-light" opacity="0.36">
<path fill-rule="evenodd" clip-rule="evenodd" d="M333.668 389.462C332.652 389.567 331.658 389.815 330.713 390.2C330.26 390.51 329.544 390.992 329.399 391.591C329.379 391.968 329.453 392.344 329.619 392.686C329.782 393.025 330.029 393.32 330.336 393.538C330.531 393.727 330.768 393.863 331.029 393.936C331.289 394.01 331.561 394.014 331.824 393.954C332.199 393.796 332.495 393.26 332.714 392.939C333.111 392.344 333.438 391.703 333.686 391.029C333.847 390.727 333.968 390.404 334.052 390.073C334.143 389.529 333.772 389.349 333.624 388.933L333.668 389.462Z" fill="white"/>
</g>
<g style="mix-blend-mode:soft-light" opacity="0.36">
<path fill-rule="evenodd" clip-rule="evenodd" d="M331.966 411.046L333.339 411.656C333.259 412.198 333.481 412.815 332.964 413.182C332.414 413.431 331.796 413.486 331.209 413.343C330.917 413.268 330.658 413.096 330.475 412.857C330.291 412.617 330.193 412.323 330.195 412.02C330.173 411.288 330.855 410.972 331.514 410.831L331.966 411.046Z" fill="white"/>
</g>
<g style="mix-blend-mode:soft-light" opacity="0.36">
<path fill-rule="evenodd" clip-rule="evenodd" d="M268.307 441.973C268.165 442.255 268.12 442.577 268.174 442.887C268.229 443.196 268.384 443.481 268.616 443.698C268.977 444.083 269.471 444.319 270.001 444.358C270.529 444.394 271.052 444.229 271.465 443.898C272.654 442.929 273.943 440.778 273.542 439.164C273.297 438.157 271.923 437.008 270.9 437.648C270.312 437.987 269.763 438.391 269.271 438.86C268.633 439.701 268.293 440.73 268.302 441.786L268.307 441.973Z" fill="white"/>
</g>
<g style="mix-blend-mode:soft-light" opacity="0.36">
<path fill-rule="evenodd" clip-rule="evenodd" d="M309.725 101.225C309.265 101.685 309.012 101.841 308.91 102.455C308.733 103.132 308.827 103.851 309.173 104.464C310.303 105.701 311.83 106.513 313.49 106.757C314.076 106.906 314.688 106.917 315.279 106.79C315.868 106.66 316.421 106.398 316.892 106.019C317.47 105.623 317.954 105.105 318.314 104.503C318.674 103.901 318.901 103.229 318.982 102.535C319.132 101.854 319.062 101.14 318.786 100.501C318.511 99.8618 318.04 99.3254 317.441 98.9654C316.27 98.1424 314.938 97.5674 313.534 97.2828C312.992 97.2014 312.441 97.2521 311.925 97.4285C311.408 97.6049 310.94 97.8996 310.558 98.2902C309.753 99.0032 308.71 100.282 309.725 101.225Z" fill="white"/>
</g>
<g style="mix-blend-mode:soft-light" opacity="0.36">
<path fill-rule="evenodd" clip-rule="evenodd" d="M320.755 105.703C320.743 105.296 320.728 104.823 321.118 104.705C321.481 104.681 321.846 104.733 322.189 104.856C322.533 104.979 322.847 105.167 323.115 105.416C323.499 105.828 323.716 106.364 323.728 106.927C323.624 107.298 323.389 107.619 323.064 107.826C322.853 108.016 322.586 108.136 322.304 108.168C322.019 108.196 321.733 108.137 321.487 107.997C321.141 107.788 320.276 107.367 320.397 106.864L320.755 105.703Z" fill="white"/>
</g>
<g style="mix-blend-mode:soft-light" opacity="0.36">
<path fill-rule="evenodd" clip-rule="evenodd" d="M286.015 55.788C285.951 56.3899 286.103 56.9935 286.444 57.4926C287.064 58.4054 287.883 59.1641 288.838 59.708C290.05 60.5027 291.484 60.8867 292.932 60.8055C293.455 60.6738 293.93 60.3943 294.3 60.001C294.666 59.6042 294.913 59.1117 295.004 58.5772C295.097 57.2723 294.723 55.9744 293.947 54.9132C293.227 53.9852 292.293 53.2393 291.227 52.7452C290.158 52.2474 288.989 52.017 287.812 52.0636C285.183 52.3742 285.204 56.2855 286.015 55.788Z" fill="white"/>
</g>
<g style="mix-blend-mode:soft-light" opacity="0.36">
<path fill-rule="evenodd" clip-rule="evenodd" d="M297.743 64.6579C297.454 64.4114 297.237 64.0886 297.12 63.7279C297.506 63.539 297.615 63.1157 298.031 62.9438C298.459 62.818 298.92 62.8635 299.319 63.0664C299.582 63.1823 299.81 63.3671 299.979 63.6006C300.148 63.8341 300.251 64.1057 300.279 64.3913C300.299 65.0663 300.075 65.2247 299.529 65.5253C298.983 65.8259 299.05 65.836 298.596 65.5531C298.295 65.3957 298.012 65.2082 297.752 64.9934L297.743 64.6579Z" fill="white"/>
</g>
</g>
<path fill-rule="evenodd" clip-rule="evenodd" d="M220.08 368.607C220.141 370.728 218.935 372.501 217.379 372.547C215.824 372.593 214.515 370.9 214.452 368.775C214.389 366.65 215.596 364.897 217.152 364.851C218.707 364.805 220.013 366.485 220.08 368.607Z" fill="url(#paint27_linear_52_334)"/>
<path fill-rule="evenodd" clip-rule="evenodd" d="M219.482 368.626C219.536 370.304 218.585 371.685 217.356 371.723C216.125 371.757 215.099 370.436 215.046 368.758C214.998 367.082 215.943 365.7 217.178 365.663C218.407 365.625 219.433 366.965 219.482 368.626Z" fill="white"/>
<path fill-rule="evenodd" clip-rule="evenodd" d="M332.276 357.246C332.391 358.164 332.142 359.091 331.581 359.824C331.021 360.561 330.195 361.047 329.281 361.181C328.358 361.101 327.506 360.667 326.902 359.964C326.3 359.265 325.996 358.356 326.055 357.431C325.941 356.513 326.19 355.586 326.75 354.849C327.31 354.112 328.135 353.621 329.052 353.486C329.974 353.567 330.829 354.008 331.432 354.711C332.032 355.411 332.338 356.325 332.276 357.246Z" fill="url(#paint28_linear_52_334)"/>
<path fill-rule="evenodd" clip-rule="evenodd" d="M331.613 357.265C331.704 357.991 331.507 358.718 331.067 359.298C330.627 359.878 329.977 360.263 329.255 360.368C328.53 360.305 327.858 359.958 327.385 359.408C326.91 358.855 326.67 358.137 326.719 357.413C326.628 356.691 326.824 355.96 327.264 355.38C327.704 354.799 328.356 354.418 329.075 354.309C329.801 354.373 330.473 354.719 330.946 355.269C331.421 355.822 331.661 356.541 331.613 357.265Z" fill="white"/>
<path d="M275.912 362.197C278.063 362.133 279.756 360.357 279.692 358.227C279.629 356.098 277.833 354.423 275.682 354.487C273.531 354.551 271.84 356.331 271.904 358.46C271.965 360.586 273.76 362.261 275.912 362.197Z" fill="url(#paint29_linear_52_334)"/>
<path fill-rule="evenodd" clip-rule="evenodd" d="M278.867 358.252C278.883 359.06 278.58 359.844 278.022 360.429C277.464 361.014 276.695 361.351 275.888 361.374C275.08 361.402 274.293 361.107 273.701 360.558C273.108 360.005 272.758 359.243 272.726 358.433C272.71 357.625 273.015 356.845 273.573 356.26C274.132 355.675 274.899 355.334 275.708 355.315C276.515 355.287 277.303 355.582 277.894 356.131C278.486 356.681 278.835 357.443 278.867 358.252Z" fill="white"/>
<path style="mix-blend-mode:screen" d="M297.913 349.592C299.065 352.31 299.666 355.229 299.681 358.18C299.696 361.131 299.125 364.056 298 366.784C296.878 369.515 295.223 371.994 293.133 374.077C291.045 376.164 288.561 377.812 285.831 378.931C280.313 381.25 274.102 381.297 268.549 379.071C262.994 376.84 258.543 372.512 256.158 367.021C255.007 364.302 254.408 361.386 254.394 358.434C254.379 355.483 254.951 352.558 256.075 349.831C257.197 347.099 258.851 344.621 260.941 342.538C263.028 340.452 265.509 338.801 268.24 337.682C273.757 335.362 279.966 335.312 285.521 337.542C291.077 339.772 295.528 344.1 297.913 349.592Z" fill="url(#paint30_radial_52_334)"/>
<path style="mix-blend-mode:screen" d="M379.344 149.646C380.262 151.813 380.743 154.144 380.755 156.499C380.767 158.853 380.313 161.189 379.417 163.366C378.521 165.543 377.202 167.522 375.537 169.189C373.87 170.852 371.891 172.17 369.712 173.063C365.306 174.911 360.35 174.948 355.917 173.166C351.483 171.384 347.93 167.929 346.025 163.548C345.109 161.379 344.632 159.051 344.622 156.696C344.609 154.337 345.066 152.004 345.963 149.827C346.86 147.649 348.18 145.67 349.847 144.007C351.514 142.343 353.493 141.025 355.671 140.128C360.077 138.285 365.03 138.248 369.46 140.028C373.892 141.811 377.441 145.263 379.344 149.646Z" fill="url(#paint31_radial_52_334)"/>
<path style="mix-blend-mode:screen" d="M279.265 31.3537C280.183 33.5205 280.664 35.852 280.676 38.206C280.688 40.5602 280.234 42.8957 279.338 45.0732C278.442 47.2504 277.123 49.2292 275.458 50.8962C273.791 52.5594 271.812 53.8775 269.633 54.7706C265.229 56.6267 260.269 56.6667 255.835 54.8849C251.399 53.1034 247.847 49.6439 245.947 45.2549C245.029 43.0881 244.55 40.7602 244.535 38.4026C244.524 36.0484 244.979 33.7164 245.874 31.5352C246.77 29.3577 248.089 27.3793 249.756 25.7159C251.42 24.0491 253.4 22.7309 255.579 21.8378C259.986 19.9895 264.943 19.951 269.376 21.7293C273.81 23.5113 277.364 26.9702 279.265 31.3537Z" fill="url(#paint32_radial_52_334)"/>
<path style="mix-blend-mode:screen" d="M181.248 157.347C181.722 158.465 181.97 159.67 181.978 160.888C181.982 162.102 181.748 163.308 181.287 164.436C180.824 165.56 180.142 166.581 179.283 167.443C178.423 168.304 177.399 168.983 176.275 169.447C173.997 170.402 171.434 170.422 169.141 169.501C166.85 168.585 165.012 166.798 164.028 164.533C163.553 163.41 163.305 162.205 163.301 160.99C163.295 159.772 163.53 158.565 163.994 157.44C164.459 156.316 165.141 155.294 166.002 154.432C166.864 153.573 167.887 152.891 169.014 152.43C171.291 151.48 173.848 151.459 176.139 152.381C178.427 153.299 180.262 155.082 181.248 157.347Z" fill="url(#paint33_radial_52_334)"/>
<path style="mix-blend-mode:screen" d="M335.403 354.054C335.852 355.104 336.089 356.234 336.099 357.377C336.106 358.516 335.889 359.649 335.458 360.707C335.026 361.764 334.386 362.722 333.581 363.533C332.774 364.339 331.816 364.98 330.76 365.415C328.632 366.312 326.236 366.333 324.094 365.471C321.949 364.606 320.235 362.934 319.321 360.813C318.875 359.766 318.644 358.643 318.638 357.507C318.63 356.368 318.851 355.243 319.282 354.191C319.714 353.138 320.352 352.186 321.155 351.381C321.959 350.577 322.915 349.942 323.966 349.51C326.087 348.612 328.476 348.586 330.617 349.438C332.756 350.286 334.476 351.946 335.403 354.054Z" fill="url(#paint34_radial_52_334)"/>
<path style="mix-blend-mode:screen" d="M223.503 365.395C223.947 366.443 224.177 367.565 224.184 368.701C224.19 369.841 223.969 370.967 223.535 372.021C223.102 373.074 222.464 374.026 221.659 374.832C220.855 375.632 219.897 376.268 218.843 376.701C216.715 377.594 214.321 377.613 212.181 376.755C210.041 375.898 208.325 374.225 207.407 372.112C206.963 371.064 206.731 369.937 206.721 368.799C206.717 367.662 206.936 366.533 207.37 365.479C207.803 364.426 208.439 363.47 209.246 362.668C210.052 361.862 211.009 361.227 212.063 360.793C214.191 359.9 216.585 359.881 218.728 360.742C220.869 361.604 222.585 363.276 223.503 365.395Z" fill="url(#paint35_radial_52_334)"/>
<defs>
<linearGradient id="paint0_linear_52_334" x1="295.492" y1="669.178" x2="289.884" y2="480.497" gradientUnits="userSpaceOnUse">
<stop stop-opacity="0"/>
<stop offset="1" stop-color="#106D90"/>
</linearGradient>
<linearGradient id="paint1_linear_52_334" x1="364.328" y1="505.216" x2="360.573" y2="378.889" gradientUnits="userSpaceOnUse">
<stop stop-color="#A43440"/>
<stop offset="1" stop-color="#C73634"/>
</linearGradient>
<linearGradient id="paint2_linear_52_334" x1="190.965" y1="510.367" x2="187.213" y2="384.039" gradientUnits="userSpaceOnUse">
<stop stop-color="#A43440"/>
<stop offset="1" stop-color="#C73634"/>
</linearGradient>
<radialGradient id="paint3_radial_52_334" cx="0" cy="0" r="1" gradientUnits="userSpaceOnUse" gradientTransform="translate(289.389 157.445) rotate(-1.70201) scale(143.601 259.156)">
<stop stop-color="#F4BAB3"/>
<stop offset="0.77" stop-color="#8D6FC7"/>
<stop offset="0.96" stop-color="#B695E5"/>
</radialGradient>
<radialGradient id="paint4_radial_52_334" cx="0" cy="0" r="1" gradientUnits="userSpaceOnUse" gradientTransform="translate(262.941 34.0549) rotate(-1.70199) scale(38.5996 34.4369)">
<stop offset="0.02" stop-color="#AB5E75"/>
<stop offset="0.25" stop-color="#9F577B"/>
<stop offset="0.67" stop-color="#7F458C"/>
<stop offset="0.99" stop-color="#61349C"/>
</radialGradient>
<linearGradient id="paint5_linear_52_334" x1="263.209" y1="42.6444" x2="262.739" y2="26.8611" gradientUnits="userSpaceOnUse">
<stop stop-color="#FFFF18"/>
<stop offset="1" stop-color="#FF7400"/>
</linearGradient>
<radialGradient id="paint6_radial_52_334" cx="0" cy="0" r="1" gradientUnits="userSpaceOnUse" gradientTransform="translate(271.944 375.558) rotate(-1.70201) scale(68.1874 123.674)">
<stop offset="0.02" stop-color="#8881BC"/>
<stop offset="0.29" stop-color="#8375B7"/>
<stop offset="0.77" stop-color="#7555AA"/>
<stop offset="0.99" stop-color="#6D43A3"/>
</radialGradient>
<radialGradient id="paint7_radial_52_334" cx="0" cy="0" r="1" gradientUnits="userSpaceOnUse" gradientTransform="translate(266.627 185.511) rotate(-1.70198) scale(72.5069 71.7961)">
<stop offset="0.02" stop-color="#8881BC"/>
<stop offset="0.29" stop-color="#8375B7"/>
<stop offset="0.77" stop-color="#7555AA"/>
<stop offset="0.99" stop-color="#6D43A3"/>
</radialGradient>
<radialGradient id="paint8_radial_52_334" cx="0" cy="0" r="1" gradientUnits="userSpaceOnUse" gradientTransform="translate(261.572 116.988) rotate(-1.70199) scale(90.2076 149.004)">
<stop offset="0.02" stop-color="#725EB0"/>
<stop offset="0.38" stop-color="#6D52AA"/>
<stop offset="0.99" stop-color="#61349C"/>
</radialGradient>
<linearGradient id="paint9_linear_52_334" x1="269.49" y1="226.705" x2="266.212" y2="116.353" gradientUnits="userSpaceOnUse">
<stop stop-color="#FFFF29"/>
<stop offset="1" stop-color="#FF7E59"/>
</linearGradient>
<radialGradient id="paint10_radial_52_334" cx="0" cy="0" r="1" gradientUnits="userSpaceOnUse" gradientTransform="translate(276.192 479.076) rotate(-1.70199) scale(26.7865 48.5833)">
<stop offset="0.02" stop-color="#725EB0"/>
<stop offset="0.38" stop-color="#6D52AA"/>
<stop offset="0.99" stop-color="#61349C"/>
</radialGradient>
<radialGradient id="paint11_radial_52_334" cx="0" cy="0" r="1" gradientUnits="userSpaceOnUse" gradientTransform="translate(264.469 92.4213) rotate(-1.70198) scale(49.3641 48.8797)">
<stop offset="0.02" stop-color="#8881BC"/>
<stop offset="0.29" stop-color="#8375B7"/>
<stop offset="0.77" stop-color="#7555AA"/>
<stop offset="0.99" stop-color="#6D43A3"/>
</radialGradient>
<linearGradient id="paint12_linear_52_334" x1="268.635" y1="324.173" x2="268.438" y2="317.521" gradientUnits="userSpaceOnUse">
<stop stop-color="#8DC7FF"/>
<stop offset="0.32" stop-color="#5C4D86"/>
</linearGradient>
<radialGradient id="paint13_radial_52_334" cx="0" cy="0" r="1" gradientUnits="userSpaceOnUse" gradientTransform="translate(268.027 323.259) rotate(-1.70161) scale(2.66348 2.63739)">
<stop offset="0.02" stop-color="#8881BC"/>
<stop offset="0.29" stop-color="#8375B7"/>
<stop offset="0.77" stop-color="#7555AA"/>
<stop offset="1" stop-color="#6D43A3"/>
</radialGradient>
<linearGradient id="paint14_linear_52_334" x1="268.148" y1="307.757" x2="267.951" y2="301.09" gradientUnits="userSpaceOnUse">
<stop stop-color="#8DC7FF"/>
<stop offset="0.32" stop-color="#5C4D86"/>
</linearGradient>
<radialGradient id="paint15_radial_52_334" cx="0" cy="0" r="1" gradientUnits="userSpaceOnUse" gradientTransform="translate(267.54 306.776) rotate(-1.70239) scale(2.66346 2.63732)">
<stop offset="0.02" stop-color="#8881BC"/>
<stop offset="0.29" stop-color="#8375B7"/>
<stop offset="0.77" stop-color="#7555AA"/>
<stop offset="1" stop-color="#6D43A3"/>
</radialGradient>
<radialGradient id="paint16_radial_52_334" cx="0" cy="0" r="1" gradientUnits="userSpaceOnUse" gradientTransform="translate(208.666 196.12) rotate(-1.70186) scale(2.66347 2.63736)">
<stop stop-color="#F4BAB3"/>
<stop offset="1" stop-color="#8D6FC7"/>
</radialGradient>
<radialGradient id="paint17_radial_52_334" cx="0" cy="0" r="1" gradientUnits="userSpaceOnUse" gradientTransform="translate(213.179 148.671) rotate(-1.70226) scale(2.66346 2.63734)">
<stop stop-color="#F4BAB3"/>
<stop offset="1" stop-color="#8D6FC7"/>
</radialGradient>
<radialGradient id="paint18_radial_52_334" cx="0" cy="0" r="1" gradientUnits="userSpaceOnUse" gradientTransform="translate(241.349 232.511) rotate(-1.70245) scale(2.66346 2.63732)">
<stop stop-color="#F4BAB3"/>
<stop offset="1" stop-color="#8D6FC7"/>
</radialGradient>
<radialGradient id="paint19_radial_52_334" cx="0" cy="0" r="1" gradientUnits="userSpaceOnUse" gradientTransform="translate(293.709 234.99) rotate(-1.70244) scale(2.66346 2.63732)">
<stop stop-color="#F4BAB3"/>
<stop offset="1" stop-color="#8D6FC7"/>
</radialGradient>
<radialGradient id="paint20_radial_52_334" cx="0" cy="0" r="1" gradientUnits="userSpaceOnUse" gradientTransform="translate(328.151 202.768) rotate(-1.7013) scale(2.66349 2.63742)">
<stop stop-color="#F4BAB3"/>
<stop offset="1" stop-color="#8D6FC7"/>
</radialGradient>
<radialGradient id="paint21_radial_52_334" cx="0" cy="0" r="1" gradientUnits="userSpaceOnUse" gradientTransform="translate(320.972 143.733) rotate(-1.70193) scale(2.66347 2.63736)">
<stop stop-color="#F4BAB3"/>
<stop offset="1" stop-color="#8D6FC7"/>
</radialGradient>
<radialGradient id="paint22_radial_52_334" cx="0" cy="0" r="1" gradientUnits="userSpaceOnUse" gradientTransform="translate(293.482 114.006) rotate(-1.70193) scale(2.66347 2.63736)">
<stop stop-color="#F4BAB3"/>
<stop offset="1" stop-color="#8D6FC7"/>
</radialGradient>
<radialGradient id="paint23_radial_52_334" cx="0" cy="0" r="1" gradientUnits="userSpaceOnUse" gradientTransform="translate(248.591 110.541) rotate(-1.70156) scale(2.66348 2.63739)">
<stop stop-color="#F4BAB3"/>
<stop offset="1" stop-color="#8D6FC7"/>
</radialGradient>
<linearGradient id="paint24_linear_52_334" x1="302.806" y1="507.044" x2="298.637" y2="366.679" gradientUnits="userSpaceOnUse">
<stop stop-color="#A43411"/>
<stop offset="1" stop-color="#C73634"/>
</linearGradient>
<linearGradient id="paint25_linear_52_334" x1="359.236" y1="158.973" x2="367.647" y2="158.722" gradientUnits="userSpaceOnUse">
<stop stop-color="#FFFF18"/>
<stop offset="1" stop-color="#FF7400"/>
</linearGradient>
<linearGradient id="paint26_linear_52_334" x1="168.727" y1="162.36" x2="176.638" y2="162.125" gradientUnits="userSpaceOnUse">
<stop stop-color="#FFFF18"/>
<stop offset="1" stop-color="#FF7400"/>
</linearGradient>
<linearGradient id="paint27_linear_52_334" x1="217.379" y1="372.547" x2="217.152" y2="364.851" gradientUnits="userSpaceOnUse">
<stop stop-color="#8DC7FF"/>
<stop offset="0.32" stop-color="#5C4D86"/>
</linearGradient>
<linearGradient id="paint28_linear_52_334" x1="329.28" y1="361.206" x2="329.053" y2="353.514" gradientUnits="userSpaceOnUse">
<stop stop-color="#8DC7FF"/>
<stop offset="0.32" stop-color="#5C4D86"/>
</linearGradient>
<linearGradient id="paint29_linear_52_334" x1="275.912" y1="362.197" x2="275.683" y2="354.501" gradientUnits="userSpaceOnUse">
<stop stop-color="#8DC7FF"/>
<stop offset="0.32" stop-color="#5C4D86"/>
</linearGradient>
<radialGradient id="paint30_radial_52_334" cx="0" cy="0" r="1" gradientUnits="userSpaceOnUse" gradientTransform="translate(276.695 358.571) rotate(-22.7944) scale(22.6974 22.4152)">
<stop stop-color="#003CEE"/>
<stop offset="0.06" stop-color="#0036D6"/>
<stop offset="0.2" stop-color="#00289E"/>
<stop offset="0.34" stop-color="#001C6D"/>
<stop offset="0.48" stop-color="#001246"/>
<stop offset="0.62" stop-color="#000A27"/>
<stop offset="0.75" stop-color="#000412"/>
<stop offset="0.88" stop-color="#000104"/>
<stop offset="1"/>
</radialGradient>
<radialGradient id="paint31_radial_52_334" cx="0" cy="0" r="1" gradientUnits="userSpaceOnUse" gradientTransform="translate(362.763 156.401) rotate(-22.7943) scale(18.1093 17.8841)">
<stop stop-color="#FF9A00"/>
<stop offset="0.09" stop-color="#D68100"/>
<stop offset="0.23" stop-color="#9E5F00"/>
<stop offset="0.36" stop-color="#6E4200"/>
<stop offset="0.5" stop-color="#462A00"/>
<stop offset="0.63" stop-color="#271800"/>
<stop offset="0.76" stop-color="#120B00"/>
<stop offset="0.89" stop-color="#040300"/>
<stop offset="1"/>
</radialGradient>
<radialGradient id="paint32_radial_52_334" cx="0" cy="0" r="1" gradientUnits="userSpaceOnUse" gradientTransform="translate(262.729 38.3304) rotate(-22.7943) scale(18.1093 17.884)">
<stop stop-color="#FF9A00"/>
<stop offset="0.09" stop-color="#D68100"/>
<stop offset="0.23" stop-color="#9E5F00"/>
<stop offset="0.36" stop-color="#6E4200"/>
<stop offset="0.5" stop-color="#462A00"/>
<stop offset="0.63" stop-color="#271800"/>
<stop offset="0.76" stop-color="#120B00"/>
<stop offset="0.89" stop-color="#040300"/>
<stop offset="1"/>
</radialGradient>
<radialGradient id="paint33_radial_52_334" cx="0" cy="0" r="1" gradientUnits="userSpaceOnUse" gradientTransform="translate(172.466 161.341) rotate(-22.7944) scale(9.35912 9.24275)">
<stop stop-color="#FF9A00"/>
<stop offset="0.09" stop-color="#D68100"/>
<stop offset="0.23" stop-color="#9E5F00"/>
<stop offset="0.36" stop-color="#6E4200"/>
<stop offset="0.5" stop-color="#462A00"/>
<stop offset="0.63" stop-color="#271800"/>
<stop offset="0.76" stop-color="#120B00"/>
<stop offset="0.89" stop-color="#040300"/>
<stop offset="1"/>
</radialGradient>
<radialGradient id="paint34_radial_52_334" cx="0" cy="0" r="1" gradientUnits="userSpaceOnUse" gradientTransform="translate(327.077 357.494) rotate(-22.7944) scale(8.75007 8.64128)">
<stop stop-color="#003CEE"/>
<stop offset="0.06" stop-color="#0036D6"/>
<stop offset="0.2" stop-color="#00289E"/>
<stop offset="0.34" stop-color="#001C6D"/>
<stop offset="0.48" stop-color="#001246"/>
<stop offset="0.62" stop-color="#000A27"/>
<stop offset="0.75" stop-color="#000412"/>
<stop offset="0.88" stop-color="#000104"/>
<stop offset="1"/>
</radialGradient>
<radialGradient id="paint35_radial_52_334" cx="0" cy="0" r="1" gradientUnits="userSpaceOnUse" gradientTransform="translate(215.03 369.22) rotate(-22.7944) scale(8.75007 8.6412)">
<stop stop-color="#003CEE"/>
<stop offset="0.06" stop-color="#0036D6"/>
<stop offset="0.2" stop-color="#00289E"/>
<stop offset="0.34" stop-color="#001C6D"/>
<stop offset="0.48" stop-color="#001246"/>
<stop offset="0.62" stop-color="#000A27"/>
<stop offset="0.75" stop-color="#000412"/>
<stop offset="0.88" stop-color="#000104"/>
<stop offset="1"/>
</radialGradient>
</defs>
</svg>
